26F Galaxy Sans-Black.ufo
<glyph name="exclam" format="2">
	<advance width="624"/>
	<unicode hex="0021"/>
	<outline>
		<contour>
			<point x="312" y="0" type="curve" smooth="yes"/>
			<point x="401" y="0"/>
			<point x="474" y="74"/>
			<point x="474" y="163" type="curve" smooth="yes"/>
			<point x="474" y="251"/>
			<point x="401" y="325"/>
			<point x="312" y="325" type="curve" smooth="yes"/>
			<point x="223" y="325"/>
			<point x="150" y="251"/>
			<point x="150" y="163" type="curve" smooth="yes"/>
			<point x="150" y="74"/>
			<point x="223" y="0"/>
		</contour>
		<contour>
			<point x="162" y="1250" type="curve" smooth="yes"/>
			<point x="162" y="614" type="line" smooth="yes"/>
			<point x="162" y="531"/>
			<point x="229" y="464"/>
			<point x="312" y="464" type="curve" smooth="yes"/>
			<point x="395" y="464"/>
			<point x="462" y="531"/>
			<point x="462" y="614" type="curve" smooth="yes"/>
			<point x="462" y="1250" type="line" smooth="yes"/>
			<point x="462" y="1333"/>
			<point x="395" y="1400"/>
			<point x="312" y="1400" type="curve" smooth="yes"/>
			<point x="229" y="1400"/>
			<point x="162" y="1333"/>
		</contour>
	</outline>
</glyph>
<glyph name="numbersign" format="2">
	<advance width="1705"/>
	<unicode hex="0023"/>
	<outline>
		<contour>
			<point x="1405" y="803" type="curve" smooth="yes"/>
			<point x="1488" y="803"/>
			<point x="1555" y="871"/>
			<point x="1555" y="953" type="curve" smooth="yes"/>
			<point x="1555" y="1036"/>
			<point x="1488" y="1103"/>
			<point x="1405" y="1103" type="curve" smooth="yes"/>
			<point x="1323" y="1103"/>
			<point x="1255" y="1036"/>
			<point x="1255" y="953" type="curve" smooth="yes"/>
			<point x="1255" y="871"/>
			<point x="1323" y="803"/>
		</contour>
		<contour>
			<point x="300" y="297" type="curve" smooth="yes"/>
			<point x="383" y="297"/>
			<point x="450" y="365"/>
			<point x="450" y="447" type="curve" smooth="yes"/>
			<point x="450" y="530"/>
			<point x="383" y="597"/>
			<point x="300" y="597" type="curve" smooth="yes"/>
			<point x="218" y="597"/>
			<point x="150" y="530"/>
			<point x="150" y="447" type="curve" smooth="yes"/>
			<point x="150" y="365"/>
			<point x="218" y="297"/>
		</contour>
		<contour>
			<point x="795" y="150" type="curve" smooth="yes"/>
			<point x="795" y="1250" type="line" smooth="yes"/>
			<point x="795" y="1333"/>
			<point x="728" y="1400"/>
			<point x="645" y="1400" type="curve" smooth="yes"/>
			<point x="562" y="1400"/>
			<point x="495" y="1333"/>
			<point x="495" y="1250" type="curve" smooth="yes"/>
			<point x="495" y="150" type="line" smooth="yes"/>
			<point x="495" y="67"/>
			<point x="562" y="0"/>
			<point x="645" y="0" type="curve" smooth="yes"/>
			<point x="728" y="0"/>
			<point x="795" y="67"/>
		</contour>
		<contour>
			<point x="300" y="803" type="curve" smooth="yes"/>
			<point x="383" y="803"/>
			<point x="450" y="871"/>
			<point x="450" y="953" type="curve" smooth="yes"/>
			<point x="450" y="1036"/>
			<point x="383" y="1103"/>
			<point x="300" y="1103" type="curve" smooth="yes"/>
			<point x="218" y="1103"/>
			<point x="150" y="1036"/>
			<point x="150" y="953" type="curve" smooth="yes"/>
			<point x="150" y="871"/>
			<point x="218" y="803"/>
		</contour>
		<contour>
			<point x="1405" y="297" type="curve" smooth="yes"/>
			<point x="1488" y="297"/>
			<point x="1555" y="365"/>
			<point x="1555" y="447" type="curve" smooth="yes"/>
			<point x="1555" y="530"/>
			<point x="1488" y="597"/>
			<point x="1405" y="597" type="curve" smooth="yes"/>
			<point x="1323" y="597"/>
			<point x="1255" y="530"/>
			<point x="1255" y="447" type="curve" smooth="yes"/>
			<point x="1255" y="365"/>
			<point x="1323" y="297"/>
		</contour>
		<contour>
			<point x="1211" y="150" type="curve" smooth="yes"/>
			<point x="1211" y="1250" type="line" smooth="yes"/>
			<point x="1211" y="1333"/>
			<point x="1144" y="1400"/>
			<point x="1061" y="1400" type="curve" smooth="yes"/>
			<point x="978" y="1400"/>
			<point x="911" y="1333"/>
			<point x="911" y="1250" type="curve" smooth="yes"/>
			<point x="911" y="150" type="line" smooth="yes"/>
			<point x="911" y="67"/>
			<point x="978" y="0"/>
			<point x="1061" y="0" type="curve" smooth="yes"/>
			<point x="1144" y="0"/>
			<point x="1211" y="67"/>
		</contour>
	</outline>
</glyph>
<glyph name="comma" format="2">
	<advance width="667"/>
	<unicode hex="002C"/>
	<outline>
		<contour>
			<point x="300" y="-279" type="curve" smooth="yes"/>
			<point x="372" y="-279"/>
			<point x="432" y="-228"/>
			<point x="447" y="-160" type="curve" smooth="yes"/>
			<point x="514" y="122" type="line" smooth="yes"/>
			<point x="533" y="215"/>
			<point x="464" y="304"/>
			<point x="367" y="304" type="curve" smooth="yes"/>
			<point x="295" y="304"/>
			<point x="235" y="253"/>
			<point x="220" y="185" type="curve" smooth="yes"/>
			<point x="153" y="-97" type="line" smooth="yes"/>
			<point x="134" y="-190"/>
			<point x="203" y="-279"/>
		</contour>
	</outline>
</glyph>
<glyph name="hyphen" format="2">
	<advance width="863"/>
	<unicode hex="002D"/>
	<outline>
		<contour>
			<point x="563" y="850" type="curve" smooth="yes"/>
			<point x="300" y="850" type="line" smooth="yes"/>
			<point x="217" y="850"/>
			<point x="150" y="783"/>
			<point x="150" y="700" type="curve" smooth="yes"/>
			<point x="150" y="617"/>
			<point x="217" y="550"/>
			<point x="300" y="550" type="curve" smooth="yes"/>
			<point x="563" y="550" type="line" smooth="yes"/>
			<point x="646" y="550"/>
			<point x="713" y="617"/>
			<point x="713" y="700" type="curve" smooth="yes"/>
			<point x="713" y="783"/>
			<point x="646" y="850"/>
		</contour>
	</outline>
</glyph>
<glyph name="period" format="2">
	<advance width="626"/>
	<unicode hex="002E"/>
	<outline>
		<contour>
			<point x="313" y="0" type="curve" smooth="yes"/>
			<point x="402" y="0"/>
			<point x="476" y="73"/>
			<point x="476" y="162" type="curve" smooth="yes"/>
			<point x="476" y="251"/>
			<point x="402" y="325"/>
			<point x="313" y="325" type="curve" smooth="yes"/>
			<point x="224" y="325"/>
			<point x="150" y="251"/>
			<point x="150" y="162" type="curve" smooth="yes"/>
			<point x="150" y="73"/>
			<point x="224" y="0"/>
		</contour>
	</outline>
</glyph>
<glyph name="slash" format="2">
	<advance width="964"/>
	<unicode hex="002F"/>
	<outline>
		<contour>
			<point x="300" y="0" type="curve" smooth="yes"/>
			<point x="368" y="0"/>
			<point x="425" y="45"/>
			<point x="444" y="106" type="curve" smooth="yes"/>
			<point x="807" y="1206" type="line" smooth="yes"/>
			<point x="837" y="1303"/>
			<point x="765" y="1400"/>
			<point x="664" y="1400" type="curve" smooth="yes"/>
			<point x="596" y="1400"/>
			<point x="539" y="1355"/>
			<point x="520" y="1294" type="curve" smooth="yes"/>
			<point x="157" y="194" type="line" smooth="yes"/>
			<point x="127" y="97"/>
			<point x="199" y="0"/>
		</contour>
	</outline>
</glyph>
<glyph name="two" format="2">
	<advance width="1098"/>
	<unicode hex="0032"/>
	<outline>
		<contour>
			<point x="243" y="0" type="curve" smooth="yes"/>
			<point x="877" y="0" type="line" smooth="yes"/>
			<point x="960" y="0"/>
			<point x="1027" y="67"/>
			<point x="1027" y="150" type="curve" smooth="yes"/>
			<point x="1027" y="233"/>
			<point x="960" y="300"/>
			<point x="877" y="300" type="curve" smooth="yes"/>
			<point x="243" y="300" type="line" smooth="yes"/>
			<point x="160" y="300"/>
			<point x="93" y="233"/>
			<point x="93" y="150" type="curve" smooth="yes"/>
			<point x="93" y="67"/>
			<point x="160" y="0"/>
		</contour>
		<contour>
			<point x="363" y="63" type="curve" smooth="yes"/>
			<point x="670" y="400" type="line" smooth="yes"/>
			<point x="694" y="427"/>
			<point x="709" y="462"/>
			<point x="709" y="501" type="curve" smooth="yes"/>
			<point x="709" y="584"/>
			<point x="642" y="651"/>
			<point x="559" y="651" type="curve" smooth="yes"/>
			<point x="515" y="651"/>
			<point x="475" y="632"/>
			<point x="448" y="602" type="curve" smooth="yes"/>
			<point x="142" y="265" type="line" smooth="yes"/>
			<point x="118" y="239"/>
			<point x="103" y="203"/>
			<point x="103" y="164" type="curve" smooth="yes"/>
			<point x="103" y="81"/>
			<point x="170" y="14"/>
			<point x="253" y="14" type="curve" smooth="yes"/>
			<point x="297" y="14"/>
			<point x="336" y="33"/>
		</contour>
		<contour>
			<point x="392" y="941" type="curve" smooth="yes"/>
			<point x="392" y="1029"/>
			<point x="463" y="1100"/>
			<point x="550" y="1100" type="curve" smooth="yes"/>
			<point x="637" y="1100"/>
			<point x="708" y="1029"/>
			<point x="708" y="941" type="curve" smooth="yes"/>
			<point x="708" y="858"/>
			<point x="775" y="791"/>
			<point x="858" y="791" type="curve" smooth="yes"/>
			<point x="941" y="791"/>
			<point x="1008" y="858"/>
			<point x="1008" y="941" type="curve" smooth="yes"/>
			<point x="1008" y="1195"/>
			<point x="803" y="1400"/>
			<point x="550" y="1400" type="curve" smooth="yes"/>
			<point x="297" y="1400"/>
			<point x="92" y="1195"/>
			<point x="92" y="941" type="curve" smooth="yes"/>
			<point x="92" y="858"/>
			<point x="159" y="791"/>
			<point x="242" y="791" type="curve" smooth="yes"/>
			<point x="325" y="791"/>
			<point x="392" y="858"/>
		</contour>
	</outline>
</glyph>
<glyph name="eight" format="2">
	<advance width="1098"/>
	<unicode hex="0038"/>
	<outline>
		<contour>
			<point x="698" y="459" type="curve" smooth="yes"/>
			<point x="698" y="368"/>
			<point x="623" y="300"/>
			<point x="540" y="300" type="curve" smooth="yes"/>
			<point x="457" y="300"/>
			<point x="390" y="233"/>
			<point x="390" y="150" type="curve" smooth="yes"/>
			<point x="390" y="67"/>
			<point x="457" y="0"/>
			<point x="540" y="0" type="curve" smooth="yes"/>
			<point x="786" y="0"/>
			<point x="998" y="200"/>
			<point x="998" y="459" type="curve" smooth="yes"/>
			<point x="998" y="542"/>
			<point x="931" y="609"/>
			<point x="848" y="609" type="curve" smooth="yes"/>
			<point x="765" y="609"/>
			<point x="698" y="542"/>
		</contour>
		<contour>
			<point x="694" y="997" type="curve" smooth="yes"/>
			<point x="694" y="893"/>
			<point x="646" y="850"/>
			<point x="549" y="850" type="curve" smooth="yes"/>
			<point x="314" y="850"/>
			<point x="104" y="658"/>
			<point x="104" y="403" type="curve" smooth="yes"/>
			<point x="104" y="320"/>
			<point x="171" y="253"/>
			<point x="254" y="253" type="curve" smooth="yes"/>
			<point x="337" y="253"/>
			<point x="404" y="320"/>
			<point x="404" y="403" type="curve" smooth="yes"/>
			<point x="404" y="507"/>
			<point x="452" y="550"/>
			<point x="549" y="550" type="curve" smooth="yes"/>
			<point x="784" y="550"/>
			<point x="994" y="742"/>
			<point x="994" y="997" type="curve" smooth="yes"/>
			<point x="994" y="1080"/>
			<point x="927" y="1147"/>
			<point x="844" y="1147" type="curve" smooth="yes"/>
			<point x="761" y="1147"/>
			<point x="694" y="1080"/>
		</contour>
		<contour>
			<point x="400" y="941" type="curve" smooth="yes"/>
			<point x="400" y="1032"/>
			<point x="475" y="1100"/>
			<point x="558" y="1100" type="curve" smooth="yes"/>
			<point x="641" y="1100"/>
			<point x="708" y="1167"/>
			<point x="708" y="1250" type="curve" smooth="yes"/>
			<point x="708" y="1333"/>
			<point x="641" y="1400"/>
			<point x="558" y="1400" type="curve" smooth="yes"/>
			<point x="312" y="1400"/>
			<point x="100" y="1200"/>
			<point x="100" y="941" type="curve" smooth="yes"/>
			<point x="100" y="858"/>
			<point x="167" y="791"/>
			<point x="250" y="791" type="curve" smooth="yes"/>
			<point x="333" y="791"/>
			<point x="400" y="858"/>
		</contour>
	</outline>
</glyph>
<glyph name="colon" format="2">
	<advance width="625"/>
	<unicode hex="003A"/>
	<outline>
		<contour>
			<point x="312" y="857" type="curve" smooth="yes"/>
			<point x="401" y="857"/>
			<point x="475" y="931"/>
			<point x="475" y="1020" type="curve" smooth="yes"/>
			<point x="475" y="1109"/>
			<point x="401" y="1183"/>
			<point x="312" y="1183" type="curve" smooth="yes"/>
			<point x="223" y="1183"/>
			<point x="150" y="1109"/>
			<point x="150" y="1020" type="curve" smooth="yes"/>
			<point x="150" y="931"/>
			<point x="223" y="857"/>
		</contour>
		<contour>
			<point x="312" y="218" type="curve" smooth="yes"/>
			<point x="401" y="218"/>
			<point x="475" y="291"/>
			<point x="475" y="380" type="curve" smooth="yes"/>
			<point x="475" y="469"/>
			<point x="401" y="543"/>
			<point x="312" y="543" type="curve" smooth="yes"/>
			<point x="223" y="543"/>
			<point x="150" y="469"/>
			<point x="150" y="380" type="curve" smooth="yes"/>
			<point x="150" y="291"/>
			<point x="223" y="218"/>
		</contour>
	</outline>
</glyph>
<glyph name="equal" format="2">
	<advance width="1166"/>
	<unicode hex="003D"/>
	<outline>
		<contour>
			<point x="926" y="605" type="curve" smooth="yes"/>
			<point x="241" y="605" type="line" smooth="yes"/>
			<point x="158" y="605"/>
			<point x="91" y="538"/>
			<point x="91" y="455" type="curve" smooth="yes"/>
			<point x="91" y="372"/>
			<point x="158" y="305"/>
			<point x="241" y="305" type="curve" smooth="yes"/>
			<point x="926" y="305" type="line" smooth="yes"/>
			<point x="1009" y="305"/>
			<point x="1076" y="372"/>
			<point x="1076" y="455" type="curve" smooth="yes"/>
			<point x="1076" y="538"/>
			<point x="1009" y="605"/>
		</contour>
		<contour>
			<point x="926" y="1095" type="curve" smooth="yes"/>
			<point x="241" y="1095" type="line" smooth="yes"/>
			<point x="158" y="1095"/>
			<point x="91" y="1028"/>
			<point x="91" y="945" type="curve" smooth="yes"/>
			<point x="91" y="862"/>
			<point x="158" y="795"/>
			<point x="241" y="795" type="curve" smooth="yes"/>
			<point x="926" y="795" type="line" smooth="yes"/>
			<point x="1009" y="795"/>
			<point x="1076" y="862"/>
			<point x="1076" y="945" type="curve" smooth="yes"/>
			<point x="1076" y="1028"/>
			<point x="1009" y="1095"/>
		</contour>
	</outline>
</glyph>
<glyph name="at" format="2">
	<advance width="1440"/>
	<unicode hex="0040"/>
	<outline>
		<contour>
			<point x="819" y="650" type="curve" smooth="yes"/>
			<point x="791" y="650"/>
			<point x="768" y="673"/>
			<point x="768" y="701" type="curve" smooth="yes"/>
			<point x="768" y="729"/>
			<point x="791" y="752"/>
			<point x="819" y="752" type="curve" smooth="yes"/>
			<point x="847" y="752"/>
			<point x="870" y="729"/>
			<point x="870" y="701" type="curve" smooth="yes"/>
			<point x="870" y="673"/>
			<point x="847" y="650"/>
		</contour>
		<contour>
			<point x="819" y="400" type="curve" smooth="yes"/>
			<point x="985" y="400"/>
			<point x="1120" y="535"/>
			<point x="1120" y="701" type="curve" smooth="yes"/>
			<point x="1120" y="867"/>
			<point x="985" y="1002"/>
			<point x="819" y="1002" type="curve" smooth="yes"/>
			<point x="653" y="1002"/>
			<point x="518" y="867"/>
			<point x="518" y="701" type="curve" smooth="yes"/>
			<point x="518" y="535"/>
			<point x="653" y="400"/>
		</contour>
		<contour>
			<point x="1140" y="300" type="curve" smooth="yes"/>
			<point x="820" y="300" type="line" smooth="yes"/>
			<point x="716" y="300"/>
			<point x="615" y="339"/>
			<point x="537" y="417" type="curve" smooth="yes"/>
			<point x="381" y="573"/>
			<point x="381" y="826"/>
			<point x="537" y="982" type="curve" smooth="yes"/>
			<point x="669" y="1114"/>
			<point x="871" y="1134"/>
			<point x="1025" y="1042" type="curve" smooth="yes"/>
			<point x="1047" y="1028"/>
			<point x="1074" y="1020"/>
			<point x="1102" y="1020" type="curve" smooth="yes"/>
			<point x="1185" y="1020"/>
			<point x="1252" y="1087"/>
			<point x="1252" y="1170" type="curve" smooth="yes"/>
			<point x="1252" y="1225"/>
			<point x="1223" y="1272"/>
			<point x="1180" y="1299" type="curve" smooth="yes"/>
			<point x="910" y="1461"/>
			<point x="557" y="1426"/>
			<point x="325" y="1194" type="curve" smooth="yes"/>
			<point x="52" y="921"/>
			<point x="52" y="478"/>
			<point x="325" y="205" type="curve" smooth="yes"/>
			<point x="459" y="71"/>
			<point x="637" y="0"/>
			<point x="820" y="0" type="curve" smooth="yes"/>
			<point x="1140" y="0" type="line" smooth="yes"/>
			<point x="1223" y="0"/>
			<point x="1290" y="67"/>
			<point x="1290" y="150" type="curve" smooth="yes"/>
			<point x="1290" y="233"/>
			<point x="1223" y="300"/>
		</contour>
	</outline>
</glyph>
<glyph name="B" format="2">
	<advance width="1340"/>
	<unicode hex="0042"/>
	<unicode hex="0062"/>
	<anchor x="670" y="0" name="bottom"/>
	<anchor x="670" y="700" name="center"/>
	<anchor x="670" y="1400" name="top"/>
	<outline>
		<contour>
			<point x="450" y="150" type="curve" smooth="yes"/>
			<point x="450" y="785" type="line" smooth="yes"/>
			<point x="450" y="868"/>
			<point x="383" y="935"/>
			<point x="300" y="935" type="curve" smooth="yes"/>
			<point x="217" y="935"/>
			<point x="150" y="868"/>
			<point x="150" y="785" type="curve" smooth="yes"/>
			<point x="150" y="150" type="line" smooth="yes"/>
			<point x="150" y="67"/>
			<point x="217" y="0"/>
			<point x="300" y="0" type="curve" smooth="yes"/>
			<point x="383" y="0"/>
			<point x="450" y="67"/>
		</contour>
		<contour>
			<point x="709" y="551" type="line"/>
			<point x="840" y="551" type="line" smooth="yes"/>
			<point x="909" y="551"/>
			<point x="965" y="495"/>
			<point x="965" y="426" type="curve" smooth="yes"/>
			<point x="965" y="357"/>
			<point x="909" y="300"/>
			<point x="840" y="300" type="curve" smooth="yes"/>
			<point x="764" y="300" type="line" smooth="yes"/>
			<point x="681" y="300"/>
			<point x="614" y="233"/>
			<point x="614" y="150" type="curve" smooth="yes"/>
			<point x="614" y="67"/>
			<point x="681" y="0"/>
			<point x="764" y="0" type="curve" smooth="yes"/>
			<point x="840" y="0" type="line" smooth="yes"/>
			<point x="1075" y="0"/>
			<point x="1265" y="191"/>
			<point x="1265" y="426" type="curve" smooth="yes"/>
			<point x="1265" y="661"/>
			<point x="1075" y="851"/>
			<point x="840" y="851" type="curve" smooth="yes"/>
			<point x="709" y="851" type="line"/>
		</contour>
		<contour>
			<point x="725" y="551" type="curve" smooth="yes"/>
			<point x="760" y="551" type="line" smooth="yes"/>
			<point x="994" y="551"/>
			<point x="1184" y="741"/>
			<point x="1184" y="976" type="curve" smooth="yes"/>
			<point x="1184" y="1210"/>
			<point x="994" y="1400"/>
			<point x="760" y="1400" type="curve" smooth="yes"/>
			<point x="300" y="1400" type="line" smooth="yes"/>
			<point x="217" y="1400"/>
			<point x="150" y="1333"/>
			<point x="150" y="1250" type="curve" smooth="yes"/>
			<point x="150" y="1167"/>
			<point x="217" y="1100"/>
			<point x="300" y="1100" type="curve" smooth="yes"/>
			<point x="760" y="1100" type="line" smooth="yes"/>
			<point x="828" y="1100"/>
			<point x="884" y="1044"/>
			<point x="884" y="976" type="curve" smooth="yes"/>
			<point x="884" y="907"/>
			<point x="828" y="851"/>
			<point x="760" y="851" type="curve" smooth="yes"/>
			<point x="725" y="851" type="line" smooth="yes"/>
			<point x="642" y="851"/>
			<point x="575" y="784"/>
			<point x="575" y="701" type="curve" smooth="yes"/>
			<point x="575" y="618"/>
			<point x="642" y="551"/>
		</contour>
	</outline>
</glyph>
<glyph name="C" format="2">
	<advance width="1301"/>
	<unicode hex="0043"/>
	<unicode hex="0063"/>
	<anchor x="651" y="0" name="bottom"/>
	<anchor x="751" y="1400" name="top"/>
	<outline>
		<contour>
			<point x="827" y="0" type="curve" smooth="yes"/>
			<point x="1076" y="0" type="line" smooth="yes"/>
			<point x="1159" y="0"/>
			<point x="1226" y="67"/>
			<point x="1226" y="150" type="curve" smooth="yes"/>
			<point x="1226" y="233"/>
			<point x="1159" y="300"/>
			<point x="1076" y="300" type="curve" smooth="yes"/>
			<point x="827" y="300" type="line" smooth="yes"/>
			<point x="602" y="300"/>
			<point x="420" y="483"/>
			<point x="420" y="708" type="curve" smooth="yes"/>
			<point x="420" y="899"/>
			<point x="552" y="1060"/>
			<point x="729" y="1104" type="curve" smooth="yes"/>
			<point x="795" y="1120"/>
			<point x="843" y="1179"/>
			<point x="843" y="1250" type="curve" smooth="yes"/>
			<point x="843" y="1347"/>
			<point x="751" y="1420"/>
			<point x="657" y="1396" type="curve" smooth="yes"/>
			<point x="349" y="1319"/>
			<point x="120" y="1040"/>
			<point x="120" y="708" type="curve" smooth="yes"/>
			<point x="120" y="317"/>
			<point x="436" y="0"/>
		</contour>
		<contour>
			<point x="1076" y="1100" type="curve" smooth="yes"/>
			<point x="1159" y="1100"/>
			<point x="1226" y="1167"/>
			<point x="1226" y="1250" type="curve" smooth="yes"/>
			<point x="1226" y="1333"/>
			<point x="1159" y="1400"/>
			<point x="1076" y="1400" type="curve" smooth="yes"/>
			<point x="993" y="1400"/>
			<point x="926" y="1333"/>
			<point x="926" y="1250" type="curve" smooth="yes"/>
			<point x="926" y="1167"/>
			<point x="993" y="1100"/>
		</contour>
	</outline>
</glyph>
<glyph name="D" format="2">
	<advance width="1565"/>
	<unicode hex="0044"/>
	<unicode hex="0064"/>
	<anchor x="783" y="0" name="bottom"/>
	<anchor x="783" y="700" name="center"/>
	<anchor x="753" y="1400" name="top"/>
	<outline>
		<contour>
			<point x="165" y="656" type="curve" smooth="yes"/>
			<point x="165" y="150" type="line" smooth="yes"/>
			<point x="165" y="67"/>
			<point x="232" y="0"/>
			<point x="315" y="0" type="curve" smooth="yes"/>
			<point x="398" y="0"/>
			<point x="465" y="67"/>
			<point x="465" y="150" type="curve" smooth="yes"/>
			<point x="465" y="656" type="line" smooth="yes"/>
			<point x="465" y="739"/>
			<point x="398" y="806"/>
			<point x="315" y="806" type="curve" smooth="yes"/>
			<point x="232" y="806"/>
			<point x="165" y="739"/>
		</contour>
		<contour>
			<point x="745" y="0" type="curve" smooth="yes"/>
			<point x="1131" y="0"/>
			<point x="1445" y="313"/>
			<point x="1445" y="701" type="curve" smooth="yes"/>
			<point x="1445" y="1087"/>
			<point x="1131" y="1400"/>
			<point x="745" y="1400" type="curve" smooth="yes"/>
			<point x="300" y="1400" type="line" smooth="yes"/>
			<point x="217" y="1400"/>
			<point x="150" y="1333"/>
			<point x="150" y="1250" type="curve" smooth="yes"/>
			<point x="150" y="1167"/>
			<point x="217" y="1100"/>
			<point x="300" y="1100" type="curve" smooth="yes"/>
			<point x="745" y="1100" type="line" smooth="yes"/>
			<point x="965" y="1100"/>
			<point x="1145" y="921"/>
			<point x="1145" y="701" type="curve" smooth="yes"/>
			<point x="1145" y="479"/>
			<point x="965" y="300"/>
			<point x="745" y="300" type="curve" smooth="yes"/>
			<point x="662" y="300"/>
			<point x="595" y="233"/>
			<point x="595" y="150" type="curve" smooth="yes"/>
			<point x="595" y="67"/>
			<point x="662" y="0"/>
		</contour>
	</outline>
</glyph>
<glyph name="E" format="2">
	<advance width="1253"/>
	<unicode hex="0045"/>
	<unicode hex="0065"/>
	<anchor x="627" y="0" name="bottom"/>
	<anchor x="969" y="0" name="ogonek"/>
	<anchor x="627" y="1400" name="top"/>
	<anchor x="20" y="1400" name="topleft"/>
	<outline>
		<contour>
			<point x="450" y="140" type="line"/>
			<point x="450" y="705" type="line" smooth="yes"/>
			<point x="450" y="788"/>
			<point x="383" y="855"/>
			<point x="300" y="855" type="curve" smooth="yes"/>
			<point x="217" y="855"/>
			<point x="150" y="788"/>
			<point x="150" y="705" type="curve" smooth="yes"/>
			<point x="150" y="140" type="line"/>
		</contour>
		<contour>
			<point x="983" y="300" type="curve" smooth="yes"/>
			<point x="300" y="300" type="line" smooth="yes"/>
			<point x="217" y="300"/>
			<point x="150" y="233"/>
			<point x="150" y="150" type="curve" smooth="yes"/>
			<point x="150" y="67"/>
			<point x="217" y="0"/>
			<point x="300" y="0" type="curve" smooth="yes"/>
			<point x="983" y="0" type="line" smooth="yes"/>
			<point x="1066" y="0"/>
			<point x="1133" y="67"/>
			<point x="1133" y="150" type="curve" smooth="yes"/>
			<point x="1133" y="233"/>
			<point x="1066" y="300"/>
		</contour>
		<contour>
			<point x="718" y="550" type="curve" smooth="yes"/>
			<point x="983" y="550" type="line" smooth="yes"/>
			<point x="1066" y="550"/>
			<point x="1133" y="617"/>
			<point x="1133" y="700" type="curve" smooth="yes"/>
			<point x="1133" y="783"/>
			<point x="1066" y="850"/>
			<point x="983" y="850" type="curve" smooth="yes"/>
			<point x="718" y="850" type="line" smooth="yes"/>
			<point x="635" y="850"/>
			<point x="568" y="783"/>
			<point x="568" y="700" type="curve" smooth="yes"/>
			<point x="568" y="617"/>
			<point x="635" y="550"/>
		</contour>
		<contour>
			<point x="300" y="1100" type="curve" smooth="yes"/>
			<point x="983" y="1100" type="line" smooth="yes"/>
			<point x="1066" y="1100"/>
			<point x="1133" y="1167"/>
			<point x="1133" y="1250" type="curve" smooth="yes"/>
			<point x="1133" y="1333"/>
			<point x="1066" y="1400"/>
			<point x="983" y="1400" type="curve" smooth="yes"/>
			<point x="300" y="1400" type="line" smooth="yes"/>
			<point x="217" y="1400"/>
			<point x="150" y="1333"/>
			<point x="150" y="1250" type="curve" smooth="yes"/>
			<point x="150" y="1167"/>
			<point x="217" y="1100"/>
		</contour>
	</outline>
</glyph>
<glyph name="H" format="2">
	<advance width="1606"/>
	<unicode hex="0048"/>
	<unicode hex="0068"/>
	<anchor x="803" y="0" name="bottom"/>
	<anchor x="803" y="700" name="center"/>
	<anchor x="803" y="1400" name="top"/>
	<anchor x="70" y="1400" name="topleft"/>
	<outline>
		<contour>
			<point x="450" y="150" type="curve" smooth="yes"/>
			<point x="450" y="270" type="line" smooth="yes"/>
			<point x="450" y="353"/>
			<point x="383" y="420"/>
			<point x="300" y="420" type="curve" smooth="yes"/>
			<point x="217" y="420"/>
			<point x="150" y="353"/>
			<point x="150" y="270" type="curve" smooth="yes"/>
			<point x="150" y="150" type="line" smooth="yes"/>
			<point x="150" y="67"/>
			<point x="217" y="0"/>
			<point x="300" y="0" type="curve" smooth="yes"/>
			<point x="383" y="0"/>
			<point x="450" y="67"/>
		</contour>
		<contour>
			<point x="150" y="1250" type="curve" smooth="yes"/>
			<point x="150" y="700" type="line" smooth="yes"/>
			<point x="150" y="617"/>
			<point x="217" y="550"/>
			<point x="300" y="550" type="curve" smooth="yes"/>
			<point x="383" y="550"/>
			<point x="450" y="617"/>
			<point x="450" y="700" type="curve" smooth="yes"/>
			<point x="450" y="1250" type="line" smooth="yes"/>
			<point x="450" y="1333"/>
			<point x="383" y="1400"/>
			<point x="300" y="1400" type="curve" smooth="yes"/>
			<point x="217" y="1400"/>
			<point x="150" y="1333"/>
		</contour>
		<contour>
			<point x="1306" y="850" type="line"/>
			<point x="300" y="850" type="line"/>
			<point x="300" y="550" type="line"/>
			<point x="1306" y="550" type="line"/>
		</contour>
		<contour>
			<point x="1156" y="700" type="curve" smooth="yes"/>
			<point x="1156" y="150" type="line" smooth="yes"/>
			<point x="1156" y="67"/>
			<point x="1223" y="0"/>
			<point x="1306" y="0" type="curve" smooth="yes"/>
			<point x="1389" y="0"/>
			<point x="1456" y="67"/>
			<point x="1456" y="150" type="curve" smooth="yes"/>
			<point x="1456" y="700" type="line" smooth="yes"/>
			<point x="1456" y="783"/>
			<point x="1389" y="850"/>
			<point x="1306" y="850" type="curve" smooth="yes"/>
			<point x="1223" y="850"/>
			<point x="1156" y="783"/>
		</contour>
		<contour>
			<point x="1456" y="1130" type="curve" smooth="yes"/>
			<point x="1456" y="1250" type="line" smooth="yes"/>
			<point x="1456" y="1333"/>
			<point x="1389" y="1400"/>
			<point x="1306" y="1400" type="curve" smooth="yes"/>
			<point x="1223" y="1400"/>
			<point x="1156" y="1333"/>
			<point x="1156" y="1250" type="curve" smooth="yes"/>
			<point x="1156" y="1130" type="line" smooth="yes"/>
			<point x="1156" y="1047"/>
			<point x="1223" y="980"/>
			<point x="1306" y="980" type="curve" smooth="yes"/>
			<point x="1389" y="980"/>
			<point x="1456" y="1047"/>
		</contour>
	</outline>
</glyph>
<glyph name="M" format="2">
	<advance width="1620"/>
	<unicode hex="004D"/>
	<unicode hex="006D"/>
	<anchor x="810" y="0" name="bottom"/>
	<anchor x="810" y="1400" name="top"/>
	<outline>
		<contour>
			<point x="150" y="1250" type="curve" smooth="yes"/>
			<point x="150" y="150" type="line" smooth="yes"/>
			<point x="150" y="67"/>
			<point x="217" y="0"/>
			<point x="300" y="0" type="curve" smooth="yes"/>
			<point x="383" y="0"/>
			<point x="450" y="67"/>
			<point x="450" y="150" type="curve" smooth="yes"/>
			<point x="450" y="1250" type="line" smooth="yes"/>
			<point x="450" y="1333"/>
			<point x="383" y="1400"/>
			<point x="300" y="1400" type="curve" smooth="yes"/>
			<point x="217" y="1400"/>
			<point x="150" y="1333"/>
		</contour>
		<contour>
			<point x="920" y="800" type="curve" smooth="yes"/>
			<point x="423" y="1339" type="line" smooth="yes"/>
			<point x="396" y="1368"/>
			<point x="357" y="1387"/>
			<point x="313" y="1387" type="curve" smooth="yes"/>
			<point x="231" y="1387"/>
			<point x="163" y="1320"/>
			<point x="163" y="1237" type="curve" smooth="yes"/>
			<point x="163" y="1197"/>
			<point x="179" y="1161"/>
			<point x="204" y="1135" type="curve" smooth="yes"/>
			<point x="700" y="596" type="line" smooth="yes"/>
			<point x="727" y="567"/>
			<point x="766" y="548"/>
			<point x="810" y="548" type="curve" smooth="yes"/>
			<point x="893" y="548"/>
			<point x="960" y="615"/>
			<point x="960" y="698" type="curve" smooth="yes"/>
			<point x="960" y="737"/>
			<point x="945" y="773"/>
		</contour>
		<contour>
			<point x="1170" y="1250" type="curve" smooth="yes"/>
			<point x="1170" y="150" type="line" smooth="yes"/>
			<point x="1170" y="67"/>
			<point x="1237" y="0"/>
			<point x="1320" y="0" type="curve" smooth="yes"/>
			<point x="1403" y="0"/>
			<point x="1470" y="67"/>
			<point x="1470" y="150" type="curve" smooth="yes"/>
			<point x="1470" y="1250" type="line" smooth="yes"/>
			<point x="1470" y="1333"/>
			<point x="1403" y="1400"/>
			<point x="1320" y="1400" type="curve" smooth="yes"/>
			<point x="1237" y="1400"/>
			<point x="1170" y="1333"/>
		</contour>
	</outline>
</glyph>
<glyph name="P" format="2">
	<advance width="1423"/>
	<unicode hex="0050"/>
	<unicode hex="0070"/>
	<anchor x="712" y="0" name="bottom"/>
	<anchor x="712" y="1400" name="top"/>
	<outline>
		<contour>
			<point x="450" y="150" type="curve" smooth="yes"/>
			<point x="450" y="661" type="line" smooth="yes"/>
			<point x="450" y="744"/>
			<point x="383" y="811"/>
			<point x="300" y="811" type="curve" smooth="yes"/>
			<point x="217" y="811"/>
			<point x="150" y="744"/>
			<point x="150" y="661" type="curve" smooth="yes"/>
			<point x="150" y="150" type="line" smooth="yes"/>
			<point x="150" y="67"/>
			<point x="217" y="0"/>
			<point x="300" y="0" type="curve" smooth="yes"/>
			<point x="383" y="0"/>
			<point x="450" y="67"/>
		</contour>
		<contour>
			<point x="712" y="422" type="curve" smooth="yes"/>
			<point x="811" y="422" type="line" smooth="yes"/>
			<point x="1082" y="422"/>
			<point x="1300" y="640"/>
			<point x="1300" y="911" type="curve" smooth="yes"/>
			<point x="1300" y="1181"/>
			<point x="1082" y="1400"/>
			<point x="811" y="1400" type="curve" smooth="yes"/>
			<point x="300" y="1400" type="line" smooth="yes"/>
			<point x="217" y="1400"/>
			<point x="150" y="1333"/>
			<point x="150" y="1250" type="curve" smooth="yes"/>
			<point x="150" y="1167"/>
			<point x="217" y="1100"/>
			<point x="300" y="1100" type="curve" smooth="yes"/>
			<point x="811" y="1100" type="line" smooth="yes"/>
			<point x="916" y="1100"/>
			<point x="1000" y="1015"/>
			<point x="1000" y="911" type="curve" smooth="yes"/>
			<point x="1000" y="806"/>
			<point x="916" y="722"/>
			<point x="811" y="722" type="curve" smooth="yes"/>
			<point x="712" y="722" type="line" smooth="yes"/>
			<point x="629" y="722"/>
			<point x="562" y="655"/>
			<point x="562" y="572" type="curve" smooth="yes"/>
			<point x="562" y="489"/>
			<point x="629" y="422"/>
		</contour>
	</outline>
</glyph>
<glyph name="Q" format="2">
	<advance width="1640"/>
	<unicode hex="0051"/>
	<unicode hex="0071"/>
	<anchor x="820" y="0" name="bottom"/>
	<anchor x="820" y="1400" name="top"/>
	<outline>
		<contour>
			<point x="1473" y="257" type="curve" smooth="yes"/>
			<point x="1176" y="554" type="line" smooth="yes"/>
			<point x="1149" y="582"/>
			<point x="1111" y="599"/>
			<point x="1069" y="599" type="curve" smooth="yes"/>
			<point x="987" y="599"/>
			<point x="919" y="531"/>
			<point x="919" y="449" type="curve" smooth="yes"/>
			<point x="919" y="407"/>
			<point x="936" y="370"/>
			<point x="963" y="343" type="curve" smooth="yes"/>
			<point x="1261" y="45" type="line" smooth="yes"/>
			<point x="1288" y="18"/>
			<point x="1326" y="1"/>
			<point x="1367" y="1" type="curve" smooth="yes"/>
			<point x="1450" y="1"/>
			<point x="1517" y="68"/>
			<point x="1517" y="151" type="curve" smooth="yes"/>
			<point x="1517" y="192"/>
			<point x="1500" y="230"/>
		</contour>
		<contour>
			<point x="820" y="300" type="curve" smooth="yes"/>
			<point x="599" y="300"/>
			<point x="420" y="479"/>
			<point x="420" y="700" type="curve" smooth="yes"/>
			<point x="420" y="921"/>
			<point x="599" y="1100"/>
			<point x="820" y="1100" type="curve" smooth="yes"/>
			<point x="1041" y="1100"/>
			<point x="1220" y="921"/>
			<point x="1220" y="700" type="curve" smooth="yes"/>
			<point x="1220" y="617"/>
			<point x="1287" y="550"/>
			<point x="1370" y="550" type="curve" smooth="yes"/>
			<point x="1453" y="550"/>
			<point x="1520" y="617"/>
			<point x="1520" y="700" type="curve" smooth="yes"/>
			<point x="1520" y="1087"/>
			<point x="1207" y="1400"/>
			<point x="820" y="1400" type="curve" smooth="yes"/>
			<point x="433" y="1400"/>
			<point x="120" y="1087"/>
			<point x="120" y="700" type="curve" smooth="yes"/>
			<point x="120" y="313"/>
			<point x="433" y="0"/>
			<point x="820" y="0" type="curve" smooth="yes"/>
			<point x="903" y="0"/>
			<point x="970" y="67"/>
			<point x="970" y="150" type="curve" smooth="yes"/>
			<point x="970" y="233"/>
			<point x="903" y="300"/>
		</contour>
	</outline>
</glyph>
<glyph name="R" format="2">
	<advance width="1410"/>
	<unicode hex="0052"/>
	<unicode hex="0072"/>
	<anchor x="705" y="0" name="bottom"/>
	<anchor x="705" y="1400" name="top"/>
	<outline>
		<contour>
			<point x="450" y="150" type="curve" smooth="yes"/>
			<point x="450" y="661" type="line" smooth="yes"/>
			<point x="450" y="744"/>
			<point x="383" y="811"/>
			<point x="300" y="811" type="curve" smooth="yes"/>
			<point x="217" y="811"/>
			<point x="150" y="744"/>
			<point x="150" y="661" type="curve" smooth="yes"/>
			<point x="150" y="150" type="line" smooth="yes"/>
			<point x="150" y="67"/>
			<point x="217" y="0"/>
			<point x="300" y="0" type="curve" smooth="yes"/>
			<point x="383" y="0"/>
			<point x="450" y="67"/>
		</contour>
		<contour>
			<point x="1264" y="253" type="curve" smooth="yes"/>
			<point x="815" y="681" type="line" smooth="yes"/>
			<point x="789" y="706"/>
			<point x="752" y="722"/>
			<point x="712" y="722" type="curve" smooth="yes"/>
			<point x="629" y="722"/>
			<point x="562" y="655"/>
			<point x="562" y="572" type="curve" smooth="yes"/>
			<point x="562" y="529"/>
			<point x="580" y="491"/>
			<point x="609" y="463" type="curve" smooth="yes"/>
			<point x="1056" y="37" type="line" smooth="yes"/>
			<point x="1083" y="11"/>
			<point x="1120" y="-5"/>
			<point x="1160" y="-5" type="curve" smooth="yes"/>
			<point x="1243" y="-5"/>
			<point x="1310" y="62"/>
			<point x="1310" y="145" type="curve" smooth="yes"/>
			<point x="1310" y="188"/>
			<point x="1292" y="226"/>
		</contour>
		<contour>
			<point x="712" y="422" type="curve" smooth="yes"/>
			<point x="811" y="422" type="line" smooth="yes"/>
			<point x="1082" y="422"/>
			<point x="1300" y="640"/>
			<point x="1300" y="911" type="curve" smooth="yes"/>
			<point x="1300" y="1181"/>
			<point x="1082" y="1400"/>
			<point x="811" y="1400" type="curve" smooth="yes"/>
			<point x="300" y="1400" type="line" smooth="yes"/>
			<point x="217" y="1400"/>
			<point x="150" y="1333"/>
			<point x="150" y="1250" type="curve" smooth="yes"/>
			<point x="150" y="1167"/>
			<point x="217" y="1100"/>
			<point x="300" y="1100" type="curve" smooth="yes"/>
			<point x="811" y="1100" type="line" smooth="yes"/>
			<point x="916" y="1100"/>
			<point x="1000" y="1015"/>
			<point x="1000" y="911" type="curve" smooth="yes"/>
			<point x="1000" y="806"/>
			<point x="916" y="722"/>
			<point x="811" y="722" type="curve" smooth="yes"/>
			<point x="712" y="722" type="line" smooth="yes"/>
			<point x="629" y="722"/>
			<point x="562" y="655"/>
			<point x="562" y="572" type="curve" smooth="yes"/>
			<point x="562" y="489"/>
			<point x="629" y="422"/>
		</contour>
	</outline>
</glyph>
<glyph name="S" format="2">
	<advance width="1233"/>
	<unicode hex="0053"/>
	<unicode hex="0073"/>
	<anchor x="617" y="0" name="bottom"/>
	<anchor x="617" y="1400" name="top"/>
	<outline>
		<contour>
			<point x="873" y="476" type="curve" smooth="yes"/>
			<point x="873" y="379"/>
			<point x="794" y="300"/>
			<point x="696" y="300" type="curve" smooth="yes"/>
			<point x="255" y="300" type="line" smooth="yes"/>
			<point x="172" y="300"/>
			<point x="105" y="233"/>
			<point x="105" y="150" type="curve" smooth="yes"/>
			<point x="105" y="67"/>
			<point x="172" y="0"/>
			<point x="255" y="0" type="curve" smooth="yes"/>
			<point x="696" y="0" type="line" smooth="yes"/>
			<point x="960" y="0"/>
			<point x="1173" y="213"/>
			<point x="1173" y="476" type="curve" smooth="yes"/>
			<point x="1173" y="559"/>
			<point x="1106" y="626"/>
			<point x="1023" y="626" type="curve" smooth="yes"/>
			<point x="940" y="626"/>
			<point x="873" y="559"/>
		</contour>
		<contour>
			<point x="671" y="850" type="curve" smooth="yes"/>
			<point x="562" y="850" type="line" smooth="yes"/>
			<point x="479" y="850"/>
			<point x="412" y="783"/>
			<point x="412" y="700" type="curve" smooth="yes"/>
			<point x="412" y="617"/>
			<point x="479" y="550"/>
			<point x="562" y="550" type="curve" smooth="yes"/>
			<point x="671" y="550" type="line" smooth="yes"/>
			<point x="754" y="550"/>
			<point x="821" y="617"/>
			<point x="821" y="700" type="curve" smooth="yes"/>
			<point x="821" y="783"/>
			<point x="754" y="850"/>
		</contour>
		<contour>
			<point x="360" y="924" type="curve" smooth="yes"/>
			<point x="360" y="1021"/>
			<point x="439" y="1100"/>
			<point x="537" y="1100" type="curve" smooth="yes"/>
			<point x="978" y="1100" type="line" smooth="yes"/>
			<point x="1061" y="1100"/>
			<point x="1128" y="1167"/>
			<point x="1128" y="1250" type="curve" smooth="yes"/>
			<point x="1128" y="1333"/>
			<point x="1061" y="1400"/>
			<point x="978" y="1400" type="curve" smooth="yes"/>
			<point x="537" y="1400" type="line" smooth="yes"/>
			<point x="273" y="1400"/>
			<point x="60" y="1187"/>
			<point x="60" y="924" type="curve" smooth="yes"/>
			<point x="60" y="841"/>
			<point x="127" y="774"/>
			<point x="210" y="774" type="curve" smooth="yes"/>
			<point x="293" y="774"/>
			<point x="360" y="841"/>
		</contour>
	</outline>
</glyph>
<glyph name="U" format="2">
	<advance width="1411"/>
	<unicode hex="0055"/>
	<unicode hex="0075"/>
	<anchor x="706" y="0" name="bottom"/>
	<anchor x="1270" y="10" name="ogonek"/>
	<anchor x="706" y="1400" name="top"/>
	<anchor x="1391" y="1400" name="topright"/>
	<outline>
		<contour>
			<point x="450" y="999" type="curve" smooth="yes"/>
			<point x="450" y="1250" type="line" smooth="yes"/>
			<point x="450" y="1333"/>
			<point x="383" y="1400"/>
			<point x="300" y="1400" type="curve" smooth="yes"/>
			<point x="217" y="1400"/>
			<point x="150" y="1333"/>
			<point x="150" y="1250" type="curve" smooth="yes"/>
			<point x="150" y="999" type="line" smooth="yes"/>
			<point x="150" y="916"/>
			<point x="217" y="849"/>
			<point x="300" y="849" type="curve" smooth="yes"/>
			<point x="383" y="849"/>
			<point x="450" y="916"/>
		</contour>
		<contour>
			<point x="961" y="1250" type="curve" smooth="yes"/>
			<point x="961" y="555" type="line" smooth="yes"/>
			<point x="961" y="414"/>
			<point x="846" y="300"/>
			<point x="706" y="300" type="curve" smooth="yes"/>
			<point x="565" y="300"/>
			<point x="450" y="414"/>
			<point x="450" y="555" type="curve" smooth="yes"/>
			<point x="450" y="638"/>
			<point x="383" y="705"/>
			<point x="300" y="705" type="curve" smooth="yes"/>
			<point x="217" y="705"/>
			<point x="150" y="638"/>
			<point x="150" y="555" type="curve" smooth="yes"/>
			<point x="150" y="246"/>
			<point x="402" y="0"/>
			<point x="706" y="0" type="curve" smooth="yes"/>
			<point x="1009" y="0"/>
			<point x="1261" y="246"/>
			<point x="1261" y="555" type="curve" smooth="yes"/>
			<point x="1261" y="1250" type="line" smooth="yes"/>
			<point x="1261" y="1333"/>
			<point x="1194" y="1400"/>
			<point x="1111" y="1400" type="curve" smooth="yes"/>
			<point x="1028" y="1400"/>
			<point x="961" y="1333"/>
		</contour>
	</outline>
</glyph>
<glyph name="V" format="2">
	<advance width="1566"/>
	<unicode hex="0056"/>
	<unicode hex="0076"/>
	<anchor x="783" y="0" name="bottom"/>
	<anchor x="783" y="1400" name="top"/>
	<outline>
		<contour>
			<point x="589" y="878" type="curve" smooth="yes"/>
			<point x="385" y="1316" type="line" smooth="yes"/>
			<point x="360" y="1366"/>
			<point x="309" y="1400"/>
			<point x="250" y="1400" type="curve" smooth="yes"/>
			<point x="167" y="1400"/>
			<point x="100" y="1333"/>
			<point x="100" y="1250" type="curve" smooth="yes"/>
			<point x="100" y="1226"/>
			<point x="106" y="1203"/>
			<point x="116" y="1183" type="curve" smooth="yes"/>
			<point x="320" y="745" type="line" smooth="yes"/>
			<point x="345" y="695"/>
			<point x="396" y="661"/>
			<point x="455" y="661" type="curve" smooth="yes"/>
			<point x="538" y="661"/>
			<point x="605" y="728"/>
			<point x="605" y="811" type="curve" smooth="yes"/>
			<point x="605" y="835"/>
			<point x="599" y="858"/>
		</contour>
		<contour>
			<point x="939" y="84" type="curve"/>
			<point x="1451" y="1184" type="line" smooth="yes"/>
			<point x="1461" y="1204"/>
			<point x="1466" y="1227"/>
			<point x="1466" y="1251" type="curve" smooth="yes"/>
			<point x="1466" y="1333"/>
			<point x="1399" y="1401"/>
			<point x="1316" y="1401" type="curve" smooth="yes"/>
			<point x="1257" y="1401"/>
			<point x="1206" y="1366"/>
			<point x="1181" y="1317" type="curve"/>
			<point x="669" y="217" type="line" smooth="yes"/>
			<point x="659" y="197"/>
			<point x="654" y="174"/>
			<point x="654" y="150" type="curve" smooth="yes"/>
			<point x="654" y="68"/>
			<point x="721" y="0"/>
			<point x="804" y="0" type="curve" smooth="yes"/>
			<point x="863" y="0"/>
			<point x="914" y="35"/>
		</contour>
	</outline>
</glyph>
<glyph name="X" format="2">
	<advance width="1363"/>
	<unicode hex="0058"/>
	<unicode hex="0078"/>
	<anchor x="682" y="0" name="bottom"/>
	<anchor x="682" y="1400" name="top"/>
	<outline>
		<contour>
			<point x="300" y="457" type="curve" smooth="yes"/>
			<point x="133" y="244" type="line" smooth="yes"/>
			<point x="113" y="218"/>
			<point x="100" y="186"/>
			<point x="100" y="150" type="curve" smooth="yes"/>
			<point x="100" y="67"/>
			<point x="167" y="0"/>
			<point x="250" y="0" type="curve" smooth="yes"/>
			<point x="298" y="0"/>
			<point x="340" y="22"/>
			<point x="368" y="57" type="curve" smooth="yes"/>
			<point x="536" y="271" type="line" smooth="yes"/>
			<point x="556" y="297"/>
			<point x="568" y="329"/>
			<point x="568" y="364" type="curve" smooth="yes"/>
			<point x="568" y="447"/>
			<point x="501" y="514"/>
			<point x="418" y="514" type="curve" smooth="yes"/>
			<point x="370" y="514"/>
			<point x="327" y="492"/>
		</contour>
		<contour>
			<point x="137" y="1156" type="curve" smooth="yes"/>
			<point x="994" y="57" type="line" smooth="yes"/>
			<point x="1021" y="23"/>
			<point x="1063" y="0"/>
			<point x="1111" y="0" type="curve" smooth="yes"/>
			<point x="1194" y="0"/>
			<point x="1261" y="68"/>
			<point x="1261" y="150" type="curve" smooth="yes"/>
			<point x="1261" y="186"/>
			<point x="1249" y="218"/>
			<point x="1228" y="244" type="curve" smooth="yes"/>
			<point x="371" y="1343" type="line" smooth="yes"/>
			<point x="344" y="1377"/>
			<point x="302" y="1400"/>
			<point x="254" y="1400" type="curve" smooth="yes"/>
			<point x="171" y="1400"/>
			<point x="104" y="1332"/>
			<point x="104" y="1250" type="curve" smooth="yes"/>
			<point x="104" y="1214"/>
			<point x="116" y="1182"/>
		</contour>
		<contour>
			<point x="995" y="1343" type="curve" smooth="yes"/>
			<point x="827" y="1129" type="line" smooth="yes"/>
			<point x="807" y="1103"/>
			<point x="795" y="1071"/>
			<point x="795" y="1036" type="curve" smooth="yes"/>
			<point x="795" y="953"/>
			<point x="862" y="886"/>
			<point x="945" y="886" type="curve" smooth="yes"/>
			<point x="993" y="886"/>
			<point x="1036" y="908"/>
			<point x="1063" y="943" type="curve" smooth="yes"/>
			<point x="1230" y="1156" type="line" smooth="yes"/>
			<point x="1250" y="1182"/>
			<point x="1263" y="1214"/>
			<point x="1263" y="1250" type="curve" smooth="yes"/>
			<point x="1263" y="1333"/>
			<point x="1196" y="1400"/>
			<point x="1113" y="1400" type="curve" smooth="yes"/>
			<point x="1065" y="1400"/>
			<point x="1023" y="1378"/>
		</contour>
	</outline>
</glyph>
<glyph name="Z" format="2">
	<advance width="1326"/>
	<unicode hex="005A"/>
	<unicode hex="007A"/>
	<anchor x="663" y="0" name="bottom"/>
	<anchor x="663" y="700" name="center"/>
	<anchor x="663" y="1400" name="top"/>
	<outline>
		<contour>
			<point x="1076" y="300" type="curve" smooth="yes"/>
			<point x="252" y="300" type="line" smooth="yes"/>
			<point x="169" y="300"/>
			<point x="102" y="233"/>
			<point x="102" y="150" type="curve" smooth="yes"/>
			<point x="102" y="67"/>
			<point x="169" y="0"/>
			<point x="252" y="0" type="curve" smooth="yes"/>
			<point x="1076" y="0" type="line" smooth="yes"/>
			<point x="1159" y="0"/>
			<point x="1226" y="67"/>
			<point x="1226" y="150" type="curve" smooth="yes"/>
			<point x="1226" y="233"/>
			<point x="1159" y="300"/>
		</contour>
		<contour>
			<point x="367" y="70" type="curve" smooth="yes"/>
			<point x="776" y="595" type="line" smooth="yes"/>
			<point x="796" y="621"/>
			<point x="808" y="653"/>
			<point x="808" y="688" type="curve" smooth="yes"/>
			<point x="808" y="771"/>
			<point x="741" y="838"/>
			<point x="658" y="838" type="curve" smooth="yes"/>
			<point x="611" y="838"/>
			<point x="568" y="816"/>
			<point x="541" y="781" type="curve" smooth="yes"/>
			<point x="132" y="256" type="line" smooth="yes"/>
			<point x="112" y="230"/>
			<point x="100" y="198"/>
			<point x="100" y="163" type="curve" smooth="yes"/>
			<point x="100" y="80"/>
			<point x="167" y="13"/>
			<point x="250" y="13" type="curve" smooth="yes"/>
			<point x="297" y="13"/>
			<point x="340" y="35"/>
		</contour>
		<contour>
			<point x="1076" y="1396" type="curve" smooth="yes"/>
			<point x="252" y="1396" type="line" smooth="yes"/>
			<point x="169" y="1396"/>
			<point x="102" y="1329"/>
			<point x="102" y="1246" type="curve" smooth="yes"/>
			<point x="102" y="1163"/>
			<point x="169" y="1096"/>
			<point x="252" y="1096" type="curve" smooth="yes"/>
			<point x="1076" y="1096" type="line" smooth="yes"/>
			<point x="1159" y="1096"/>
			<point x="1226" y="1163"/>
			<point x="1226" y="1246" type="curve" smooth="yes"/>
			<point x="1226" y="1329"/>
			<point x="1159" y="1396"/>
		</contour>
	</outline>
</glyph>
<glyph name="asciicircum" format="2">
	<advance width="974"/>
	<unicode hex="005E"/>
	<outline>
		<contour>
			<point x="380" y="1358" type="curve" smooth="yes"/>
			<point x="195" y="1178" type="line" smooth="yes"/>
			<point x="167" y="1151"/>
			<point x="150" y="1113"/>
			<point x="150" y="1071" type="curve" smooth="yes"/>
			<point x="150" y="988"/>
			<point x="217" y="921"/>
			<point x="300" y="921" type="curve" smooth="yes"/>
			<point x="341" y="921"/>
			<point x="378" y="937"/>
			<point x="405" y="963" type="curve" smooth="yes"/>
			<point x="590" y="1143" type="line" smooth="yes"/>
			<point x="618" y="1170"/>
			<point x="635" y="1208"/>
			<point x="635" y="1250" type="curve" smooth="yes"/>
			<point x="635" y="1333"/>
			<point x="568" y="1400"/>
			<point x="485" y="1400" type="curve" smooth="yes"/>
			<point x="444" y="1400"/>
			<point x="407" y="1384"/>
		</contour>
		<contour>
			<point x="382" y="1142" type="curve" smooth="yes"/>
			<point x="569" y="962" type="line" smooth="yes"/>
			<point x="596" y="936"/>
			<point x="633" y="920"/>
			<point x="674" y="920" type="curve" smooth="yes"/>
			<point x="756" y="920"/>
			<point x="824" y="988"/>
			<point x="824" y="1070" type="curve" smooth="yes"/>
			<point x="824" y="1113"/>
			<point x="806" y="1151"/>
			<point x="778" y="1178" type="curve" smooth="yes"/>
			<point x="591" y="1358" type="line" smooth="yes"/>
			<point x="564" y="1384"/>
			<point x="527" y="1400"/>
			<point x="486" y="1400" type="curve" smooth="yes"/>
			<point x="404" y="1400"/>
			<point x="336" y="1332"/>
			<point x="336" y="1250" type="curve" smooth="yes"/>
			<point x="336" y="1207"/>
			<point x="354" y="1169"/>
		</contour>
	</outline>
</glyph>
<glyph name="grave" format="2">
	<advance width="668"/>
	<unicode hex="0060"/>
	<outline>
		<contour>
			<point x="136" y="1142" type="curve" smooth="yes"/>
			<point x="323" y="962" type="line" smooth="yes"/>
			<point x="350" y="936"/>
			<point x="387" y="920"/>
			<point x="428" y="920" type="curve" smooth="yes"/>
			<point x="510" y="920"/>
			<point x="578" y="988"/>
			<point x="578" y="1070" type="curve" smooth="yes"/>
			<point x="578" y="1113"/>
			<point x="560" y="1151"/>
			<point x="532" y="1178" type="curve" smooth="yes"/>
			<point x="345" y="1358" type="line" smooth="yes"/>
			<point x="318" y="1384"/>
			<point x="281" y="1400"/>
			<point x="240" y="1400" type="curve" smooth="yes"/>
			<point x="158" y="1400"/>
			<point x="90" y="1332"/>
			<point x="90" y="1250" type="curve" smooth="yes"/>
			<point x="90" y="1207"/>
			<point x="108" y="1169"/>
		</contour>
	</outline>
</glyph>
<glyph name="braceleft" format="2">
	<advance width="1133"/>
	<unicode hex="007B"/>
	<outline>
		<contour>
			<point x="300" y="550" type="curve" smooth="yes"/>
			<point x="383" y="550"/>
			<point x="450" y="618"/>
			<point x="450" y="700" type="curve" smooth="yes"/>
			<point x="450" y="783"/>
			<point x="383" y="850"/>
			<point x="300" y="850" type="curve" smooth="yes"/>
			<point x="217" y="850"/>
			<point x="150" y="783"/>
			<point x="150" y="700" type="curve" smooth="yes"/>
			<point x="150" y="618"/>
			<point x="217" y="550"/>
		</contour>
		<contour>
			<point x="833" y="301" type="curve" smooth="yes"/>
			<point x="766" y="301"/>
			<point x="713" y="354"/>
			<point x="713" y="420" type="curve" smooth="yes"/>
			<point x="713" y="477" type="line" smooth="yes"/>
			<point x="713" y="560"/>
			<point x="646" y="627"/>
			<point x="563" y="627" type="curve" smooth="yes"/>
			<point x="480" y="627"/>
			<point x="413" y="560"/>
			<point x="413" y="477" type="curve" smooth="yes"/>
			<point x="413" y="420" type="line" smooth="yes"/>
			<point x="413" y="188"/>
			<point x="600" y="1"/>
			<point x="833" y="1" type="curve" smooth="yes"/>
			<point x="916" y="1"/>
			<point x="983" y="68"/>
			<point x="983" y="151" type="curve" smooth="yes"/>
			<point x="983" y="234"/>
			<point x="916" y="301"/>
		</contour>
		<contour>
			<point x="713" y="924" type="curve" smooth="yes"/>
			<point x="713" y="981" type="line" smooth="yes"/>
			<point x="713" y="1047"/>
			<point x="766" y="1100"/>
			<point x="833" y="1100" type="curve" smooth="yes"/>
			<point x="916" y="1100"/>
			<point x="983" y="1167"/>
			<point x="983" y="1250" type="curve" smooth="yes"/>
			<point x="983" y="1333"/>
			<point x="916" y="1400"/>
			<point x="833" y="1400" type="curve" smooth="yes"/>
			<point x="600" y="1400"/>
			<point x="413" y="1213"/>
			<point x="413" y="981" type="curve" smooth="yes"/>
			<point x="413" y="924" type="line" smooth="yes"/>
			<point x="413" y="841"/>
			<point x="480" y="774"/>
			<point x="563" y="774" type="curve" smooth="yes"/>
			<point x="646" y="774"/>
			<point x="713" y="841"/>
		</contour>
	</outline>
</glyph>
<glyph name="asciitilde" format="2">
	<advance width="1288"/>
	<unicode hex="007E"/>
	<outline>
		<contour>
			<point x="873" y="807" type="curve" smooth="yes"/>
			<point x="840" y="741"/>
			<point x="802" y="740"/>
			<point x="743" y="799" type="curve" smooth="yes"/>
			<point x="583" y="959"/>
			<point x="279" y="946"/>
			<point x="165" y="719" type="curve" smooth="yes"/>
			<point x="155" y="700"/>
			<point x="150" y="679"/>
			<point x="150" y="656" type="curve" smooth="yes"/>
			<point x="150" y="579"/>
			<point x="213" y="516"/>
			<point x="290" y="516" type="curve" smooth="yes"/>
			<point x="345" y="516"/>
			<point x="392" y="547"/>
			<point x="415" y="593" type="curve" smooth="yes"/>
			<point x="446" y="655"/>
			<point x="493" y="654"/>
			<point x="545" y="601" type="curve" smooth="yes"/>
			<point x="714" y="432"/>
			<point x="1009" y="455"/>
			<point x="1123" y="681" type="curve" smooth="yes"/>
			<point x="1133" y="700"/>
			<point x="1138" y="721"/>
			<point x="1138" y="744" type="curve" smooth="yes"/>
			<point x="1138" y="821"/>
			<point x="1075" y="884"/>
			<point x="998" y="884" type="curve" smooth="yes"/>
			<point x="943" y="884"/>
			<point x="896" y="853"/>
		</contour>
	</outline>
</glyph>
<glyph name="cent" format="2">
	<advance width="1107"/>
	<unicode hex="00A2"/>
	<outline>
		<contour>
			<point x="645" y="175" type="curve" smooth="yes"/>
			<point x="882" y="175" type="line" smooth="yes"/>
			<point x="965" y="175"/>
			<point x="1032" y="242"/>
			<point x="1032" y="325" type="curve" smooth="yes"/>
			<point x="1032" y="408"/>
			<point x="965" y="475"/>
			<point x="882" y="475" type="curve" smooth="yes"/>
			<point x="645" y="475" type="line" smooth="yes"/>
			<point x="521" y="475"/>
			<point x="420" y="576"/>
			<point x="420" y="700" type="curve" smooth="yes"/>
			<point x="420" y="796"/>
			<point x="481" y="879"/>
			<point x="566" y="911" type="curve" smooth="yes"/>
			<point x="623" y="932"/>
			<point x="663" y="987"/>
			<point x="663" y="1051" type="curve" smooth="yes"/>
			<point x="663" y="1164"/>
			<point x="549" y="1228"/>
			<point x="460" y="1192" type="curve" smooth="yes"/>
			<point x="262" y="1117"/>
			<point x="120" y="925"/>
			<point x="120" y="700" type="curve" smooth="yes"/>
			<point x="120" y="410"/>
			<point x="355" y="175"/>
		</contour>
		<contour>
			<point x="805" y="-35" type="curve" smooth="yes"/>
			<point x="805" y="-17" type="line" smooth="yes"/>
			<point x="805" y="66"/>
			<point x="738" y="133"/>
			<point x="655" y="133" type="curve" smooth="yes"/>
			<point x="572" y="133"/>
			<point x="505" y="66"/>
			<point x="505" y="-17" type="curve" smooth="yes"/>
			<point x="505" y="-35" type="line" smooth="yes"/>
			<point x="505" y="-118"/>
			<point x="572" y="-185"/>
			<point x="655" y="-185" type="curve" smooth="yes"/>
			<point x="738" y="-185"/>
			<point x="805" y="-118"/>
		</contour>
		<contour>
			<point x="805" y="1417" type="curve" smooth="yes"/>
			<point x="805" y="1435" type="line" smooth="yes"/>
			<point x="805" y="1518"/>
			<point x="738" y="1585"/>
			<point x="655" y="1585" type="curve" smooth="yes"/>
			<point x="572" y="1585"/>
			<point x="505" y="1518"/>
			<point x="505" y="1435" type="curve" smooth="yes"/>
			<point x="505" y="1417" type="line" smooth="yes"/>
			<point x="505" y="1334"/>
			<point x="572" y="1267"/>
			<point x="655" y="1267" type="curve" smooth="yes"/>
			<point x="738" y="1267"/>
			<point x="805" y="1334"/>
		</contour>
		<contour>
			<point x="882" y="925" type="curve" smooth="yes"/>
			<point x="965" y="925"/>
			<point x="1032" y="993"/>
			<point x="1032" y="1075" type="curve" smooth="yes"/>
			<point x="1032" y="1158"/>
			<point x="965" y="1225"/>
			<point x="882" y="1225" type="curve" smooth="yes"/>
			<point x="800" y="1225"/>
			<point x="732" y="1158"/>
			<point x="732" y="1075" type="curve" smooth="yes"/>
			<point x="732" y="993"/>
			<point x="800" y="925"/>
		</contour>
	</outline>
</glyph>
<glyph name="yen" format="2">
	<advance width="1273"/>
	<unicode hex="00A5"/>
	<outline>
		<contour>
			<point x="268" y="23" type="curve" smooth="yes"/>
			<point x="1006" y="23" type="line" smooth="yes"/>
			<point x="1089" y="23"/>
			<point x="1156" y="90"/>
			<point x="1156" y="173" type="curve" smooth="yes"/>
			<point x="1156" y="256"/>
			<point x="1089" y="323"/>
			<point x="1006" y="323" type="curve" smooth="yes"/>
			<point x="268" y="323" type="line" smooth="yes"/>
			<point x="185" y="323"/>
			<point x="118" y="256"/>
			<point x="118" y="173" type="curve" smooth="yes"/>
			<point x="118" y="90"/>
			<point x="185" y="23"/>
		</contour>
		<contour>
			<point x="268" y="373" type="curve" smooth="yes"/>
			<point x="1006" y="373" type="line" smooth="yes"/>
			<point x="1089" y="373"/>
			<point x="1156" y="440"/>
			<point x="1156" y="523" type="curve" smooth="yes"/>
			<point x="1156" y="606"/>
			<point x="1089" y="673"/>
			<point x="1006" y="673" type="curve" smooth="yes"/>
			<point x="268" y="673" type="line" smooth="yes"/>
			<point x="185" y="673"/>
			<point x="118" y="606"/>
			<point x="118" y="523" type="curve" smooth="yes"/>
			<point x="118" y="440"/>
			<point x="185" y="373"/>
		</contour>
		<contour>
			<point x="486" y="1220" type="curve" smooth="yes"/>
			<point x="357" y="1354" type="line" smooth="yes"/>
			<point x="330" y="1382"/>
			<point x="292" y="1400"/>
			<point x="250" y="1400" type="curve" smooth="yes"/>
			<point x="167" y="1400"/>
			<point x="100" y="1333"/>
			<point x="100" y="1250" type="curve" smooth="yes"/>
			<point x="100" y="1209"/>
			<point x="116" y="1172"/>
			<point x="142" y="1145" type="curve" smooth="yes"/>
			<point x="270" y="1012" type="line" smooth="yes"/>
			<point x="297" y="984"/>
			<point x="336" y="966"/>
			<point x="378" y="966" type="curve" smooth="yes"/>
			<point x="461" y="966"/>
			<point x="528" y="1033"/>
			<point x="528" y="1116" type="curve" smooth="yes"/>
			<point x="528" y="1156"/>
			<point x="512" y="1193"/>
		</contour>
		<contour>
			<point x="919" y="1360" type="curve" smooth="yes"/>
			<point x="530" y="969" type="line" smooth="yes"/>
			<point x="504" y="942"/>
			<point x="487" y="904"/>
			<point x="487" y="863" type="curve" smooth="yes"/>
			<point x="487" y="780"/>
			<point x="554" y="713"/>
			<point x="637" y="713" type="curve" smooth="yes"/>
			<point x="679" y="713"/>
			<point x="716" y="730"/>
			<point x="744" y="757" type="curve" smooth="yes"/>
			<point x="1129" y="1146" type="line" smooth="yes"/>
			<point x="1156" y="1173"/>
			<point x="1173" y="1211"/>
			<point x="1173" y="1252" type="curve" smooth="yes"/>
			<point x="1173" y="1335"/>
			<point x="1106" y="1402"/>
			<point x="1023" y="1402" type="curve" smooth="yes"/>
			<point x="982" y="1402"/>
			<point x="946" y="1386"/>
		</contour>
	</outline>
</glyph>
<glyph name="brokenbar" format="2">
	<advance width="600"/>
	<unicode hex="00A6"/>
	<outline>
		<contour>
			<point x="450" y="150" type="curve" smooth="yes"/>
			<point x="450" y="290" type="line" smooth="yes"/>
			<point x="450" y="373"/>
			<point x="383" y="440"/>
			<point x="300" y="440" type="curve" smooth="yes"/>
			<point x="217" y="440"/>
			<point x="150" y="373"/>
			<point x="150" y="290" type="curve" smooth="yes"/>
			<point x="150" y="150" type="line" smooth="yes"/>
			<point x="150" y="67"/>
			<point x="217" y="0"/>
			<point x="300" y="0" type="curve" smooth="yes"/>
			<point x="383" y="0"/>
			<point x="450" y="67"/>
		</contour>
		<contour>
			<point x="450" y="1110" type="curve" smooth="yes"/>
			<point x="450" y="1250" type="line" smooth="yes"/>
			<point x="450" y="1333"/>
			<point x="383" y="1400"/>
			<point x="300" y="1400" type="curve" smooth="yes"/>
			<point x="217" y="1400"/>
			<point x="150" y="1333"/>
			<point x="150" y="1250" type="curve" smooth="yes"/>
			<point x="150" y="1110" type="line" smooth="yes"/>
			<point x="150" y="1027"/>
			<point x="217" y="960"/>
			<point x="300" y="960" type="curve" smooth="yes"/>
			<point x="383" y="960"/>
			<point x="450" y="1027"/>
		</contour>
	</outline>
</glyph>
<glyph name="copyright" format="2">
	<advance width="1640"/>
	<unicode hex="00A9"/>
	<outline>
		<contour>
			<point x="984" y="754" type="curve" smooth="yes"/>
			<point x="1031" y="754"/>
			<point x="1069" y="792"/>
			<point x="1069" y="839" type="curve" smooth="yes"/>
			<point x="1069" y="886"/>
			<point x="1031" y="924"/>
			<point x="984" y="924" type="curve" smooth="yes"/>
			<point x="937" y="924"/>
			<point x="899" y="886"/>
			<point x="899" y="839" type="curve" smooth="yes"/>
			<point x="899" y="792"/>
			<point x="937" y="754"/>
		</contour>
		<contour>
			<point x="984" y="521" type="curve" smooth="yes"/>
			<point x="806" y="521" type="line" smooth="yes"/>
			<point x="742" y="521"/>
			<point x="690" y="573"/>
			<point x="690" y="638" type="curve" smooth="yes"/>
			<point x="690" y="702"/>
			<point x="742" y="754"/>
			<point x="806" y="754" type="curve" smooth="yes"/>
			<point x="853" y="754"/>
			<point x="891" y="792"/>
			<point x="891" y="839" type="curve" smooth="yes"/>
			<point x="891" y="886"/>
			<point x="853" y="924"/>
			<point x="806" y="924" type="curve" smooth="yes"/>
			<point x="648" y="924"/>
			<point x="520" y="796"/>
			<point x="520" y="638" type="curve" smooth="yes"/>
			<point x="520" y="479"/>
			<point x="648" y="351"/>
			<point x="806" y="351" type="curve" smooth="yes"/>
			<point x="984" y="351" type="line" smooth="yes"/>
			<point x="1030" y="351"/>
			<point x="1069" y="389"/>
			<point x="1069" y="436" type="curve" smooth="yes"/>
			<point x="1069" y="483"/>
			<point x="1030" y="521"/>
		</contour>
		<contour>
			<point x="1098" y="1069" type="curve" smooth="yes"/>
			<point x="1098" y="986"/>
			<point x="1165" y="919"/>
			<point x="1248" y="919" type="curve" smooth="yes"/>
			<point x="1331" y="919"/>
			<point x="1398" y="986"/>
			<point x="1398" y="1069" type="curve" smooth="yes"/>
			<point x="1398" y="1152"/>
			<point x="1331" y="1219"/>
			<point x="1248" y="1219" type="curve" smooth="yes"/>
			<point x="1165" y="1219"/>
			<point x="1098" y="1152"/>
		</contour>
		<contour>
			<point x="1220" y="639" type="curve" smooth="yes"/>
			<point x="1220" y="418"/>
			<point x="1041" y="239"/>
			<point x="820" y="239" type="curve" smooth="yes"/>
			<point x="599" y="239"/>
			<point x="420" y="418"/>
			<point x="420" y="639" type="curve" smooth="yes"/>
			<point x="420" y="860"/>
			<point x="599" y="1039"/>
			<point x="820" y="1039" type="curve" smooth="yes"/>
			<point x="903" y="1039"/>
			<point x="970" y="1106"/>
			<point x="970" y="1189" type="curve" smooth="yes"/>
			<point x="970" y="1272"/>
			<point x="903" y="1339"/>
			<point x="820" y="1339" type="curve" smooth="yes"/>
			<point x="433" y="1339"/>
			<point x="120" y="1026"/>
			<point x="120" y="639" type="curve" smooth="yes"/>
			<point x="120" y="252"/>
			<point x="433" y="-61"/>
			<point x="820" y="-61" type="curve" smooth="yes"/>
			<point x="1207" y="-61"/>
			<point x="1520" y="252"/>
			<point x="1520" y="639" type="curve" smooth="yes"/>
			<point x="1520" y="722"/>
			<point x="1453" y="789"/>
			<point x="1370" y="789" type="curve" smooth="yes"/>
			<point x="1287" y="789"/>
			<point x="1220" y="722"/>
		</contour>
	</outline>
</glyph>
<glyph name="ordfeminine" format="2">
	<advance width="1017"/>
	<unicode hex="00AA"/>
	<outline>
		<contour>
			<point x="384" y="730" type="curve" smooth="yes"/>
			<point x="433" y="835" type="line" smooth="yes"/>
			<point x="443" y="854"/>
			<point x="448" y="877"/>
			<point x="448" y="900" type="curve" smooth="yes"/>
			<point x="448" y="983"/>
			<point x="381" y="1050"/>
			<point x="298" y="1050" type="curve" smooth="yes"/>
			<point x="239" y="1050"/>
			<point x="188" y="1016"/>
			<point x="164" y="966" type="curve" smooth="yes"/>
			<point x="115" y="861" type="line" smooth="yes"/>
			<point x="105" y="842"/>
			<point x="100" y="819"/>
			<point x="100" y="796" type="curve" smooth="yes"/>
			<point x="100" y="713"/>
			<point x="167" y="646"/>
			<point x="250" y="646" type="curve" smooth="yes"/>
			<point x="309" y="646"/>
			<point x="360" y="680"/>
		</contour>
		<contour>
			<point x="895" y="881" type="curve" smooth="yes"/>
			<point x="636" y="1331" type="line" smooth="yes"/>
			<point x="610" y="1375"/>
			<point x="562" y="1404"/>
			<point x="507" y="1404" type="curve" smooth="yes"/>
			<point x="425" y="1404"/>
			<point x="357" y="1337"/>
			<point x="357" y="1254" type="curve" smooth="yes"/>
			<point x="357" y="1226"/>
			<point x="365" y="1199"/>
			<point x="379" y="1177" type="curve" smooth="yes"/>
			<point x="638" y="727" type="line" smooth="yes"/>
			<point x="664" y="683"/>
			<point x="712" y="654"/>
			<point x="767" y="654" type="curve" smooth="yes"/>
			<point x="849" y="654"/>
			<point x="917" y="721"/>
			<point x="917" y="804" type="curve" smooth="yes"/>
			<point x="917" y="832"/>
			<point x="909" y="859"/>
		</contour>
	</outline>
</glyph>
<glyph name="logicalnot" format="2">
	<advance width="1166"/>
	<unicode hex="00AC"/>
	<outline>
		<contour>
			<point x="906" y="980" type="curve" smooth="yes"/>
			<point x="240" y="980" type="line" smooth="yes"/>
			<point x="157" y="980"/>
			<point x="90" y="913"/>
			<point x="90" y="830" type="curve" smooth="yes"/>
			<point x="90" y="747"/>
			<point x="157" y="680"/>
			<point x="240" y="680" type="curve" smooth="yes"/>
			<point x="906" y="680" type="line" smooth="yes"/>
			<point x="989" y="680"/>
			<point x="1056" y="747"/>
			<point x="1056" y="830" type="curve" smooth="yes"/>
			<point x="1056" y="913"/>
			<point x="989" y="980"/>
		</contour>
		<contour>
			<point x="1056" y="505" type="curve" smooth="yes"/>
			<point x="1056" y="830" type="line"/>
			<point x="756" y="830" type="line"/>
			<point x="756" y="505" type="line" smooth="yes"/>
			<point x="756" y="422"/>
			<point x="823" y="355"/>
			<point x="906" y="355" type="curve" smooth="yes"/>
			<point x="989" y="355"/>
			<point x="1056" y="422"/>
		</contour>
	</outline>
</glyph>
<glyph name="registered" format="2">
	<advance width="1640"/>
	<unicode hex="00AE"/>
	<outline>
		<contour>
			<point x="747" y="500" type="curve" smooth="yes"/>
			<point x="747" y="653" type="line" smooth="yes"/>
			<point x="747" y="700"/>
			<point x="709" y="738"/>
			<point x="662" y="738" type="curve" smooth="yes"/>
			<point x="615" y="738"/>
			<point x="577" y="700"/>
			<point x="577" y="653" type="curve" smooth="yes"/>
			<point x="577" y="500" type="line" smooth="yes"/>
			<point x="577" y="453"/>
			<point x="615" y="415"/>
			<point x="662" y="415" type="curve" smooth="yes"/>
			<point x="709" y="415"/>
			<point x="747" y="453"/>
		</contour>
		<contour>
			<point x="1057" y="551" type="curve" smooth="yes"/>
			<point x="913" y="718" type="line" smooth="yes"/>
			<point x="898" y="736"/>
			<point x="875" y="747"/>
			<point x="849" y="747" type="curve" smooth="yes"/>
			<point x="802" y="747"/>
			<point x="764" y="709"/>
			<point x="764" y="662" type="curve" smooth="yes"/>
			<point x="764" y="641"/>
			<point x="772" y="621"/>
			<point x="785" y="606" type="curve" smooth="yes"/>
			<point x="929" y="439" type="line" smooth="yes"/>
			<point x="945" y="421"/>
			<point x="967" y="410"/>
			<point x="993" y="410" type="curve" smooth="yes"/>
			<point x="1040" y="410"/>
			<point x="1078" y="448"/>
			<point x="1078" y="495" type="curve" smooth="yes"/>
			<point x="1078" y="516"/>
			<point x="1070" y="536"/>
		</contour>
		<component base="O"/>
		<contour>
			<point x="849" y="577" type="curve" smooth="yes"/>
			<point x="864" y="577" type="line" smooth="yes"/>
			<point x="986" y="577"/>
			<point x="1085" y="676"/>
			<point x="1085" y="799" type="curve" smooth="yes"/>
			<point x="1085" y="921"/>
			<point x="986" y="1020"/>
			<point x="864" y="1020" type="curve" smooth="yes"/>
			<point x="662" y="1020" type="line" smooth="yes"/>
			<point x="615" y="1020"/>
			<point x="577" y="982"/>
			<point x="577" y="935" type="curve" smooth="yes"/>
			<point x="577" y="888"/>
			<point x="615" y="850"/>
			<point x="662" y="850" type="curve" smooth="yes"/>
			<point x="864" y="850" type="line" smooth="yes"/>
			<point x="892" y="850"/>
			<point x="915" y="827"/>
			<point x="915" y="799" type="curve" smooth="yes"/>
			<point x="915" y="770"/>
			<point x="892" y="747"/>
			<point x="864" y="747" type="curve" smooth="yes"/>
			<point x="849" y="747" type="line" smooth="yes"/>
			<point x="802" y="747"/>
			<point x="764" y="709"/>
			<point x="764" y="662" type="curve" smooth="yes"/>
			<point x="764" y="615"/>
			<point x="802" y="577"/>
		</contour>
	</outline>
</glyph>
<glyph name="plusminus" format="2">
	<advance width="1166"/>
	<unicode hex="00B1"/>
	<outline>
		<contour>
			<point x="270" y="73" type="curve" smooth="yes"/>
			<point x="895" y="73" type="line" smooth="yes"/>
			<point x="978" y="73"/>
			<point x="1045" y="140"/>
			<point x="1045" y="223" type="curve" smooth="yes"/>
			<point x="1045" y="306"/>
			<point x="978" y="373"/>
			<point x="895" y="373" type="curve" smooth="yes"/>
			<point x="270" y="373" type="line" smooth="yes"/>
			<point x="187" y="373"/>
			<point x="120" y="306"/>
			<point x="120" y="223" type="curve" smooth="yes"/>
			<point x="120" y="140"/>
			<point x="187" y="73"/>
		</contour>
		<contour>
			<point x="270" y="646" type="curve" smooth="yes"/>
			<point x="263" y="646" type="line" smooth="yes"/>
			<point x="346" y="646"/>
			<point x="413" y="713"/>
			<point x="413" y="796" type="curve" smooth="yes"/>
			<point x="413" y="879"/>
			<point x="346" y="946"/>
			<point x="263" y="946" type="curve" smooth="yes"/>
			<point x="270" y="946" type="line" smooth="yes"/>
			<point x="187" y="946"/>
			<point x="120" y="879"/>
			<point x="120" y="796" type="curve" smooth="yes"/>
			<point x="120" y="713"/>
			<point x="187" y="646"/>
		</contour>
		<contour>
			<point x="733" y="550" type="curve" smooth="yes"/>
			<point x="733" y="1042" type="line" smooth="yes"/>
			<point x="733" y="1125"/>
			<point x="666" y="1192"/>
			<point x="583" y="1192" type="curve" smooth="yes"/>
			<point x="500" y="1192"/>
			<point x="433" y="1125"/>
			<point x="433" y="1042" type="curve" smooth="yes"/>
			<point x="433" y="550" type="line" smooth="yes"/>
			<point x="433" y="467"/>
			<point x="500" y="400"/>
			<point x="583" y="400" type="curve" smooth="yes"/>
			<point x="666" y="400"/>
			<point x="733" y="467"/>
		</contour>
		<contour>
			<point x="903" y="646" type="curve" smooth="yes"/>
			<point x="896" y="646" type="line" smooth="yes"/>
			<point x="979" y="646"/>
			<point x="1046" y="713"/>
			<point x="1046" y="796" type="curve" smooth="yes"/>
			<point x="1046" y="879"/>
			<point x="979" y="946"/>
			<point x="896" y="946" type="curve" smooth="yes"/>
			<point x="903" y="946" type="line" smooth="yes"/>
			<point x="820" y="946"/>
			<point x="753" y="879"/>
			<point x="753" y="796" type="curve" smooth="yes"/>
			<point x="753" y="713"/>
			<point x="820" y="646"/>
		</contour>
	</outline>
</glyph>
<glyph name="uni00B3" format="2">
	<advance width="638"/>
	<unicode hex="00B3"/>
	<outline>
		<contour>
			<point x="390" y="845" type="curve" smooth="yes"/>
			<point x="390" y="805"/>
			<point x="357" y="773"/>
			<point x="316" y="773" type="curve" smooth="yes"/>
			<point x="276" y="773"/>
			<point x="244" y="805"/>
			<point x="244" y="845" type="curve" smooth="yes"/>
			<point x="244" y="886"/>
			<point x="210" y="920"/>
			<point x="169" y="920" type="curve" smooth="yes"/>
			<point x="128" y="920"/>
			<point x="94" y="886"/>
			<point x="94" y="845" type="curve" smooth="yes"/>
			<point x="94" y="722"/>
			<point x="193" y="623"/>
			<point x="316" y="623" type="curve" smooth="yes"/>
			<point x="440" y="623"/>
			<point x="540" y="722"/>
			<point x="540" y="845" type="curve" smooth="yes"/>
			<point x="540" y="886"/>
			<point x="506" y="920"/>
			<point x="465" y="920" type="curve" smooth="yes"/>
			<point x="424" y="920"/>
			<point x="390" y="886"/>
		</contour>
		<contour>
			<point x="244" y="1177" type="curve" smooth="yes"/>
			<point x="244" y="1218"/>
			<point x="277" y="1250"/>
			<point x="318" y="1250" type="curve" smooth="yes"/>
			<point x="358" y="1250"/>
			<point x="390" y="1218"/>
			<point x="390" y="1177" type="curve" smooth="yes"/>
			<point x="390" y="1137"/>
			<point x="358" y="1104"/>
			<point x="318" y="1104" type="curve" smooth="yes"/>
			<point x="277" y="1104"/>
			<point x="243" y="1070"/>
			<point x="243" y="1029" type="curve" smooth="yes"/>
			<point x="243" y="988"/>
			<point x="277" y="954"/>
			<point x="318" y="954" type="curve" smooth="yes"/>
			<point x="441" y="954"/>
			<point x="540" y="1054"/>
			<point x="540" y="1177" type="curve" smooth="yes"/>
			<point x="540" y="1301"/>
			<point x="441" y="1400"/>
			<point x="318" y="1400" type="curve" smooth="yes"/>
			<point x="194" y="1400"/>
			<point x="94" y="1301"/>
			<point x="94" y="1177" type="curve" smooth="yes"/>
			<point x="94" y="1136"/>
			<point x="128" y="1102"/>
			<point x="169" y="1102" type="curve" smooth="yes"/>
			<point x="210" y="1102"/>
			<point x="244" y="1136"/>
		</contour>
	</outline>
</glyph>
<glyph name="paragraph" format="2">
	<advance width="1625"/>
	<unicode hex="00B6"/>
	<outline>
		<contour>
			<point x="476" y="435" type="curve" smooth="yes"/>
			<point x="567" y="399"/>
			<point x="680" y="462"/>
			<point x="680" y="574" type="curve" smooth="yes"/>
			<point x="680" y="638"/>
			<point x="640" y="692"/>
			<point x="585" y="714" type="curve" smooth="yes"/>
			<point x="506" y="745"/>
			<point x="450" y="822"/>
			<point x="450" y="912" type="curve" smooth="yes"/>
			<point x="450" y="1002"/>
			<point x="506" y="1079"/>
			<point x="585" y="1110" type="curve" smooth="yes"/>
			<point x="641" y="1131"/>
			<point x="681" y="1186"/>
			<point x="681" y="1250" type="curve" smooth="yes"/>
			<point x="681" y="1364"/>
			<point x="564" y="1426"/>
			<point x="476" y="1389" type="curve" smooth="yes"/>
			<point x="285" y="1315"/>
			<point x="150" y="1129"/>
			<point x="150" y="912" type="curve" smooth="yes"/>
			<point x="150" y="695"/>
			<point x="285" y="509"/>
		</contour>
		<contour>
			<point x="1075" y="150" type="curve" smooth="yes"/>
			<point x="1075" y="1250" type="line" smooth="yes"/>
			<point x="1075" y="1333"/>
			<point x="1008" y="1400"/>
			<point x="925" y="1400" type="curve" smooth="yes"/>
			<point x="842" y="1400"/>
			<point x="775" y="1333"/>
			<point x="775" y="1250" type="curve" smooth="yes"/>
			<point x="775" y="150" type="line" smooth="yes"/>
			<point x="775" y="67"/>
			<point x="842" y="0"/>
			<point x="925" y="0" type="curve" smooth="yes"/>
			<point x="1008" y="0"/>
			<point x="1075" y="67"/>
		</contour>
		<contour>
			<point x="1475" y="150" type="curve" smooth="yes"/>
			<point x="1475" y="1250" type="line" smooth="yes"/>
			<point x="1475" y="1333"/>
			<point x="1408" y="1400"/>
			<point x="1325" y="1400" type="curve" smooth="yes"/>
			<point x="1242" y="1400"/>
			<point x="1175" y="1333"/>
			<point x="1175" y="1250" type="curve" smooth="yes"/>
			<point x="1175" y="150" type="line" smooth="yes"/>
			<point x="1175" y="67"/>
			<point x="1242" y="0"/>
			<point x="1325" y="0" type="curve" smooth="yes"/>
			<point x="1408" y="0"/>
			<point x="1475" y="67"/>
		</contour>
	</outline>
</glyph>
<glyph name="uni00B9" format="2">
	<advance width="638"/>
	<unicode hex="00B9"/>
	<outline>
		<contour>
			<point x="409" y="699" type="curve" smooth="yes"/>
			<point x="409" y="851" type="line" smooth="yes"/>
			<point x="409" y="892"/>
			<point x="375" y="926"/>
			<point x="334" y="926" type="curve" smooth="yes"/>
			<point x="293" y="926"/>
			<point x="259" y="892"/>
			<point x="259" y="851" type="curve" smooth="yes"/>
			<point x="259" y="699" type="line" smooth="yes"/>
			<point x="259" y="657"/>
			<point x="293" y="624"/>
			<point x="334" y="624" type="curve" smooth="yes"/>
			<point x="375" y="624"/>
			<point x="409" y="657"/>
		</contour>
		<contour>
			<point x="293" y="1388" type="curve" smooth="yes"/>
			<point x="128" y="1279" type="line" smooth="yes"/>
			<point x="107" y="1265"/>
			<point x="94" y="1242"/>
			<point x="94" y="1216" type="curve" smooth="yes"/>
			<point x="94" y="1175"/>
			<point x="128" y="1141"/>
			<point x="169" y="1141" type="curve" smooth="yes"/>
			<point x="184" y="1141"/>
			<point x="198" y="1146"/>
			<point x="210" y="1153" type="curve" smooth="yes"/>
			<point x="375" y="1262" type="line" smooth="yes"/>
			<point x="396" y="1276"/>
			<point x="409" y="1299"/>
			<point x="409" y="1325" type="curve" smooth="yes"/>
			<point x="409" y="1366"/>
			<point x="375" y="1400"/>
			<point x="334" y="1400" type="curve" smooth="yes"/>
			<point x="319" y="1400"/>
			<point x="305" y="1395"/>
		</contour>
		<contour>
			<point x="409" y="1095" type="curve" smooth="yes"/>
			<point x="409" y="1325" type="line" smooth="yes"/>
			<point x="409" y="1366"/>
			<point x="375" y="1400"/>
			<point x="334" y="1400" type="curve" smooth="yes"/>
			<point x="293" y="1400"/>
			<point x="259" y="1366"/>
			<point x="259" y="1325" type="curve" smooth="yes"/>
			<point x="259" y="1095" type="line" smooth="yes"/>
			<point x="259" y="1054"/>
			<point x="293" y="1020"/>
			<point x="334" y="1020" type="curve" smooth="yes"/>
			<point x="375" y="1020"/>
			<point x="409" y="1054"/>
		</contour>
	</outline>
</glyph>
<glyph name="multiply" format="2">
	<advance width="1166"/>
	<unicode hex="00D7"/>
	<outline>
		<contour>
			<point x="722" y="349" type="curve" smooth="yes"/>
			<point x="746" y="325" type="line" smooth="yes"/>
			<point x="773" y="297"/>
			<point x="811" y="280"/>
			<point x="853" y="280" type="curve" smooth="yes"/>
			<point x="935" y="280"/>
			<point x="1003" y="348"/>
			<point x="1003" y="430" type="curve" smooth="yes"/>
			<point x="1003" y="472"/>
			<point x="986" y="510"/>
			<point x="958" y="537" type="curve" smooth="yes"/>
			<point x="934" y="561" type="line" smooth="yes"/>
			<point x="907" y="589"/>
			<point x="869" y="606"/>
			<point x="827" y="606" type="curve" smooth="yes"/>
			<point x="745" y="606"/>
			<point x="677" y="538"/>
			<point x="677" y="456" type="curve" smooth="yes"/>
			<point x="677" y="414"/>
			<point x="694" y="376"/>
		</contour>
		<contour>
			<point x="436" y="340" type="curve" smooth="yes"/>
			<point x="944" y="848" type="line" smooth="yes"/>
			<point x="971" y="876"/>
			<point x="988" y="913"/>
			<point x="988" y="955" type="curve" smooth="yes"/>
			<point x="988" y="1037"/>
			<point x="920" y="1105"/>
			<point x="838" y="1105" type="curve" smooth="yes"/>
			<point x="796" y="1105"/>
			<point x="759" y="1088"/>
			<point x="731" y="1061" type="curve" smooth="yes"/>
			<point x="223" y="553" type="line" smooth="yes"/>
			<point x="196" y="525"/>
			<point x="179" y="488"/>
			<point x="179" y="446" type="curve" smooth="yes"/>
			<point x="179" y="364"/>
			<point x="247" y="296"/>
			<point x="329" y="296" type="curve" smooth="yes"/>
			<point x="371" y="296"/>
			<point x="408" y="313"/>
		</contour>
		<contour>
			<point x="208" y="863" type="curve" smooth="yes"/>
			<point x="232" y="839" type="line" smooth="yes"/>
			<point x="259" y="811"/>
			<point x="297" y="794"/>
			<point x="339" y="794" type="curve" smooth="yes"/>
			<point x="421" y="794"/>
			<point x="489" y="862"/>
			<point x="489" y="944" type="curve" smooth="yes"/>
			<point x="489" y="986"/>
			<point x="472" y="1024"/>
			<point x="444" y="1051" type="curve" smooth="yes"/>
			<point x="420" y="1075" type="line" smooth="yes"/>
			<point x="393" y="1103"/>
			<point x="355" y="1120"/>
			<point x="313" y="1120" type="curve" smooth="yes"/>
			<point x="231" y="1120"/>
			<point x="163" y="1052"/>
			<point x="163" y="970" type="curve" smooth="yes"/>
			<point x="163" y="928"/>
			<point x="180" y="890"/>
		</contour>
	</outline>
</glyph>
<glyph name="florin" format="2">
	<advance width="1050"/>
	<unicode hex="0192"/>
	<outline>
		<contour>
			<point x="365" y="342" type="curve" smooth="yes"/>
			<point x="365" y="-52" type="line" smooth="yes"/>
			<point x="365" y="-78"/>
			<point x="344" y="-99"/>
			<point x="319" y="-99" type="curve" smooth="yes"/>
			<point x="236" y="-99"/>
			<point x="169" y="-166"/>
			<point x="169" y="-249" type="curve" smooth="yes"/>
			<point x="169" y="-332"/>
			<point x="236" y="-399"/>
			<point x="319" y="-399" type="curve" smooth="yes"/>
			<point x="510" y="-399"/>
			<point x="665" y="-244"/>
			<point x="665" y="-52" type="curve" smooth="yes"/>
			<point x="665" y="342" type="line" smooth="yes"/>
			<point x="665" y="425"/>
			<point x="598" y="492"/>
			<point x="515" y="492" type="curve" smooth="yes"/>
			<point x="432" y="492"/>
			<point x="365" y="425"/>
		</contour>
		<contour>
			<point x="300" y="550" type="curve" smooth="yes"/>
			<point x="750" y="550" type="line" smooth="yes"/>
			<point x="833" y="550"/>
			<point x="900" y="617"/>
			<point x="900" y="700" type="curve" smooth="yes"/>
			<point x="900" y="783"/>
			<point x="833" y="850"/>
			<point x="750" y="850" type="curve" smooth="yes"/>
			<point x="300" y="850" type="line" smooth="yes"/>
			<point x="217" y="850"/>
			<point x="150" y="783"/>
			<point x="150" y="700" type="curve" smooth="yes"/>
			<point x="150" y="617"/>
			<point x="217" y="550"/>
		</contour>
		<contour>
			<point x="665" y="1052" type="curve" smooth="yes"/>
			<point x="665" y="1078"/>
			<point x="686" y="1099"/>
			<point x="711" y="1099" type="curve" smooth="yes"/>
			<point x="794" y="1099"/>
			<point x="861" y="1166"/>
			<point x="861" y="1249" type="curve" smooth="yes"/>
			<point x="861" y="1332"/>
			<point x="794" y="1399"/>
			<point x="711" y="1399" type="curve" smooth="yes"/>
			<point x="520" y="1399"/>
			<point x="365" y="1244"/>
			<point x="365" y="1052" type="curve" smooth="yes"/>
			<point x="365" y="969"/>
			<point x="432" y="902"/>
			<point x="515" y="902" type="curve" smooth="yes"/>
			<point x="598" y="902"/>
			<point x="665" y="969"/>
		</contour>
	</outline>
</glyph>
<glyph name="tildecomb" format="2">
	<advance width="0"/>
	<unicode hex="0303"/>
	<anchor x="0" y="1400" name="_top"/>
	<anchor x="0" y="1845" name="top"/>
	<outline>
		<contour>
			<point x="169" y="1766" type="curve" smooth="yes"/>
			<point x="153" y="1722"/>
			<point x="111" y="1728"/>
			<point x="68" y="1767" type="curve" smooth="yes"/>
			<point x="-59" y="1885"/>
			<point x="-292" y="1877"/>
			<point x="-357" y="1688" type="curve" smooth="yes"/>
			<point x="-361" y="1678"/>
			<point x="-363" y="1666"/>
			<point x="-363" y="1655" type="curve" smooth="yes"/>
			<point x="-363" y="1600"/>
			<point x="-318" y="1555"/>
			<point x="-263" y="1555" type="curve" smooth="yes"/>
			<point x="-219" y="1555"/>
			<point x="-182" y="1583"/>
			<point x="-169" y="1622" type="curve" smooth="yes"/>
			<point x="-152" y="1669"/>
			<point x="-115" y="1665"/>
			<point x="-68" y="1621" type="curve" smooth="yes"/>
			<point x="59" y="1503"/>
			<point x="294" y="1517"/>
			<point x="357" y="1700" type="curve" smooth="yes"/>
			<point x="361" y="1710"/>
			<point x="363" y="1722"/>
			<point x="363" y="1733" type="curve" smooth="yes"/>
			<point x="363" y="1788"/>
			<point x="318" y="1833"/>
			<point x="263" y="1833" type="curve" smooth="yes"/>
			<point x="219" y="1833"/>
			<point x="182" y="1805"/>
		</contour>
	</outline>
</glyph>
<glyph name="uni0307" format="2">
	<advance width="0"/>
	<unicode hex="0307"/>
	<anchor x="0" y="1400" name="_top"/>
	<anchor x="0" y="1777" name="top"/>
	<outline>
		<contour>
			<point x="1" y="1534" type="curve" smooth="yes"/>
			<point x="67" y="1534"/>
			<point x="122" y="1589"/>
			<point x="122" y="1655" type="curve" smooth="yes"/>
			<point x="122" y="1722"/>
			<point x="66" y="1777"/>
			<point x="0" y="1777" type="curve" smooth="yes"/>
			<point x="-66" y="1777"/>
			<point x="-122" y="1722"/>
			<point x="-122" y="1655" type="curve" smooth="yes"/>
			<point x="-122" y="1589"/>
			<point x="-65" y="1534"/>
		</contour>
	</outline>
</glyph>
<glyph name="uni0308" format="2">
	<advance width="0"/>
	<unicode hex="0308"/>
	<anchor x="0" y="1400" name="_top"/>
	<anchor x="0" y="1777" name="top"/>
	<outline>
		<contour>
			<point x="193" y="1534" type="curve" smooth="yes"/>
			<point x="259" y="1534"/>
			<point x="314" y="1589"/>
			<point x="314" y="1655" type="curve" smooth="yes"/>
			<point x="314" y="1722"/>
			<point x="258" y="1777"/>
			<point x="192" y="1777" type="curve" smooth="yes"/>
			<point x="126" y="1777"/>
			<point x="70" y="1722"/>
			<point x="70" y="1655" type="curve" smooth="yes"/>
			<point x="70" y="1589"/>
			<point x="127" y="1534"/>
		</contour>
		<contour>
			<point x="-191" y="1534" type="curve" smooth="yes"/>
			<point x="-125" y="1534"/>
			<point x="-70" y="1589"/>
			<point x="-70" y="1655" type="curve" smooth="yes"/>
			<point x="-70" y="1722"/>
			<point x="-126" y="1777"/>
			<point x="-192" y="1777" type="curve" smooth="yes"/>
			<point x="-258" y="1777"/>
			<point x="-314" y="1722"/>
			<point x="-314" y="1655" type="curve" smooth="yes"/>
			<point x="-314" y="1589"/>
			<point x="-257" y="1534"/>
		</contour>
	</outline>
</glyph>
<glyph name="uni030B" format="2">
	<advance width="0"/>
	<unicode hex="030B"/>
	<anchor x="0" y="1400" name="_top"/>
	<anchor x="0" y="1883" name="top"/>
	<outline>
		<contour>
			<point x="-160" y="1857" type="curve" smooth="yes"/>
			<point x="-335" y="1701" type="line" smooth="yes"/>
			<point x="-355" y="1683"/>
			<point x="-368" y="1656"/>
			<point x="-368" y="1627" type="curve" smooth="yes"/>
			<point x="-368" y="1572"/>
			<point x="-323" y="1527"/>
			<point x="-268" y="1527" type="curve" smooth="yes"/>
			<point x="-242" y="1527"/>
			<point x="-219" y="1537"/>
			<point x="-201" y="1553" type="curve" smooth="yes"/>
			<point x="-26" y="1709" type="line" smooth="yes"/>
			<point x="-6" y="1727"/>
			<point x="7" y="1754"/>
			<point x="7" y="1783" type="curve" smooth="yes"/>
			<point x="7" y="1838"/>
			<point x="-38" y="1883"/>
			<point x="-93" y="1883" type="curve" smooth="yes"/>
			<point x="-119" y="1883"/>
			<point x="-142" y="1873"/>
		</contour>
		<contour>
			<point x="201" y="1857" type="curve" smooth="yes"/>
			<point x="26" y="1701" type="line" smooth="yes"/>
			<point x="6" y="1683"/>
			<point x="-7" y="1656"/>
			<point x="-7" y="1627" type="curve" smooth="yes"/>
			<point x="-7" y="1572"/>
			<point x="38" y="1527"/>
			<point x="93" y="1527" type="curve" smooth="yes"/>
			<point x="119" y="1527"/>
			<point x="142" y="1537"/>
			<point x="160" y="1553" type="curve" smooth="yes"/>
			<point x="335" y="1709" type="line" smooth="yes"/>
			<point x="355" y="1727"/>
			<point x="368" y="1754"/>
			<point x="368" y="1783" type="curve" smooth="yes"/>
			<point x="368" y="1838"/>
			<point x="323" y="1883"/>
			<point x="268" y="1883" type="curve" smooth="yes"/>
			<point x="242" y="1883"/>
			<point x="219" y="1873"/>
		</contour>
	</outline>
</glyph>
<glyph name="uni03A9" format="2">
	<advance width="1324"/>
	<unicode hex="03A9"/>
	<outline>
		<contour>
			<point x="663" y="661" type="curve" smooth="yes"/>
			<point x="541" y="661"/>
			<point x="443" y="759"/>
			<point x="443" y="881" type="curve" smooth="yes"/>
			<point x="443" y="1002"/>
			<point x="541" y="1100"/>
			<point x="663" y="1100" type="curve" smooth="yes"/>
			<point x="784" y="1100"/>
			<point x="882" y="1002"/>
			<point x="882" y="881" type="curve" smooth="yes"/>
			<point x="882" y="759"/>
			<point x="784" y="661"/>
		</contour>
		<contour>
			<point x="663" y="361" type="curve" smooth="yes"/>
			<point x="952" y="361"/>
			<point x="1182" y="596"/>
			<point x="1182" y="881" type="curve" smooth="yes"/>
			<point x="1182" y="1168"/>
			<point x="950" y="1400"/>
			<point x="663" y="1400" type="curve" smooth="yes"/>
			<point x="378" y="1400"/>
			<point x="143" y="1170"/>
			<point x="143" y="881" type="curve" smooth="yes"/>
			<point x="143" y="593"/>
			<point x="375" y="361"/>
		</contour>
		<contour>
			<point x="1074" y="304" type="curve" smooth="yes"/>
			<point x="250" y="304" type="line" smooth="yes"/>
			<point x="167" y="304"/>
			<point x="100" y="237"/>
			<point x="100" y="154" type="curve" smooth="yes"/>
			<point x="100" y="71"/>
			<point x="167" y="4"/>
			<point x="250" y="4" type="curve" smooth="yes"/>
			<point x="1074" y="4" type="line" smooth="yes"/>
			<point x="1157" y="4"/>
			<point x="1224" y="71"/>
			<point x="1224" y="154" type="curve" smooth="yes"/>
			<point x="1224" y="237"/>
			<point x="1157" y="304"/>
		</contour>
	</outline>
</glyph>
<glyph name="pi" format="2">
	<advance width="1454"/>
	<unicode hex="03C0"/>
	<outline>
		<contour>
			<point x="617" y="150" type="curve" smooth="yes"/>
			<point x="617" y="410" type="line" smooth="yes"/>
			<point x="617" y="493"/>
			<point x="550" y="560"/>
			<point x="467" y="560" type="curve" smooth="yes"/>
			<point x="384" y="560"/>
			<point x="317" y="493"/>
			<point x="317" y="410" type="curve" smooth="yes"/>
			<point x="317" y="150" type="line" smooth="yes"/>
			<point x="317" y="67"/>
			<point x="384" y="0"/>
			<point x="467" y="0" type="curve" smooth="yes"/>
			<point x="550" y="0"/>
			<point x="617" y="67"/>
		</contour>
		<contour>
			<point x="929" y="1000" type="line"/>
			<point x="250" y="1000" type="line" smooth="yes"/>
			<point x="167" y="1000"/>
			<point x="100" y="933"/>
			<point x="100" y="850" type="curve" smooth="yes"/>
			<point x="100" y="767"/>
			<point x="167" y="700"/>
			<point x="250" y="700" type="curve" smooth="yes"/>
			<point x="929" y="700" type="line"/>
		</contour>
		<contour>
			<point x="1204" y="300" type="curve" smooth="yes"/>
			<point x="1138" y="300"/>
			<point x="1085" y="353"/>
			<point x="1085" y="418" type="curve" smooth="yes"/>
			<point x="1085" y="850" type="line" smooth="yes"/>
			<point x="1085" y="933"/>
			<point x="1018" y="1000"/>
			<point x="935" y="1000" type="curve" smooth="yes"/>
			<point x="852" y="1000"/>
			<point x="785" y="933"/>
			<point x="785" y="850" type="curve" smooth="yes"/>
			<point x="785" y="418" type="line" smooth="yes"/>
			<point x="785" y="187"/>
			<point x="972" y="0"/>
			<point x="1204" y="0" type="curve" smooth="yes"/>
			<point x="1287" y="0"/>
			<point x="1354" y="67"/>
			<point x="1354" y="150" type="curve" smooth="yes"/>
			<point x="1354" y="233"/>
			<point x="1287" y="300"/>
		</contour>
	</outline>
</glyph>
<glyph name="daggerdbl" format="2">
	<advance width="1286"/>
	<unicode hex="2021"/>
	<outline>
		<contour>
			<point x="793" y="474" type="curve" smooth="yes"/>
			<point x="793" y="487" type="line" smooth="yes"/>
			<point x="793" y="570"/>
			<point x="726" y="637"/>
			<point x="643" y="637" type="curve" smooth="yes"/>
			<point x="560" y="637"/>
			<point x="493" y="570"/>
			<point x="493" y="487" type="curve" smooth="yes"/>
			<point x="493" y="474" type="line" smooth="yes"/>
			<point x="493" y="391"/>
			<point x="560" y="324"/>
			<point x="643" y="324" type="curve" smooth="yes"/>
			<point x="726" y="324"/>
			<point x="793" y="391"/>
		</contour>
		<contour>
			<point x="300" y="657" type="curve" smooth="yes"/>
			<point x="986" y="657" type="line" smooth="yes"/>
			<point x="1069" y="657"/>
			<point x="1136" y="724"/>
			<point x="1136" y="807" type="curve" smooth="yes"/>
			<point x="1136" y="890"/>
			<point x="1069" y="957"/>
			<point x="986" y="957" type="curve" smooth="yes"/>
			<point x="300" y="957" type="line" smooth="yes"/>
			<point x="217" y="957"/>
			<point x="150" y="890"/>
			<point x="150" y="807" type="curve" smooth="yes"/>
			<point x="150" y="724"/>
			<point x="217" y="657"/>
		</contour>
		<contour>
			<point x="300" y="976" type="curve" smooth="yes"/>
			<point x="323" y="976" type="line" smooth="yes"/>
			<point x="406" y="976"/>
			<point x="473" y="1043"/>
			<point x="473" y="1126" type="curve" smooth="yes"/>
			<point x="473" y="1209"/>
			<point x="406" y="1276"/>
			<point x="323" y="1276" type="curve" smooth="yes"/>
			<point x="300" y="1276" type="line" smooth="yes"/>
			<point x="217" y="1276"/>
			<point x="150" y="1209"/>
			<point x="150" y="1126" type="curve" smooth="yes"/>
			<point x="150" y="1043"/>
			<point x="217" y="976"/>
		</contour>
		<contour>
			<point x="793" y="1137" type="curve" smooth="yes"/>
			<point x="793" y="1259" type="line" smooth="yes"/>
			<point x="793" y="1342"/>
			<point x="726" y="1409"/>
			<point x="643" y="1409" type="curve" smooth="yes"/>
			<point x="560" y="1409"/>
			<point x="493" y="1342"/>
			<point x="493" y="1259" type="curve" smooth="yes"/>
			<point x="493" y="1137" type="line" smooth="yes"/>
			<point x="493" y="1054"/>
			<point x="560" y="987"/>
			<point x="643" y="987" type="curve" smooth="yes"/>
			<point x="726" y="987"/>
			<point x="793" y="1054"/>
		</contour>
		<contour>
			<point x="963" y="976" type="curve" smooth="yes"/>
			<point x="986" y="976" type="line" smooth="yes"/>
			<point x="1069" y="976"/>
			<point x="1136" y="1043"/>
			<point x="1136" y="1126" type="curve" smooth="yes"/>
			<point x="1136" y="1209"/>
			<point x="1069" y="1276"/>
			<point x="986" y="1276" type="curve" smooth="yes"/>
			<point x="963" y="1276" type="line" smooth="yes"/>
			<point x="880" y="1276"/>
			<point x="813" y="1209"/>
			<point x="813" y="1126" type="curve" smooth="yes"/>
			<point x="813" y="1043"/>
			<point x="880" y="976"/>
		</contour>
	</outline>
</glyph>
<glyph name="guilsinglleft" format="2">
	<advance width="939"/>
	<unicode hex="2039"/>
	<outline>
		<contour>
			<point x="737" y="522" type="curve" smooth="yes"/>
			<point x="687" y="566" type="line" smooth="yes"/>
			<point x="660" y="589"/>
			<point x="626" y="603"/>
			<point x="588" y="603" type="curve" smooth="yes"/>
			<point x="505" y="603"/>
			<point x="438" y="536"/>
			<point x="438" y="453" type="curve" smooth="yes"/>
			<point x="438" y="408"/>
			<point x="458" y="367"/>
			<point x="490" y="340" type="curve" smooth="yes"/>
			<point x="540" y="296" type="line" smooth="yes"/>
			<point x="567" y="273"/>
			<point x="601" y="259"/>
			<point x="639" y="259" type="curve" smooth="yes"/>
			<point x="722" y="259"/>
			<point x="789" y="326"/>
			<point x="789" y="409" type="curve" smooth="yes"/>
			<point x="789" y="454"/>
			<point x="769" y="495"/>
		</contour>
		<contour>
			<point x="540" y="1104" type="curve" smooth="yes"/>
			<point x="202" y="813" type="line" smooth="yes"/>
			<point x="170" y="786"/>
			<point x="150" y="745"/>
			<point x="150" y="700" type="curve" smooth="yes"/>
			<point x="150" y="617"/>
			<point x="218" y="550"/>
			<point x="300" y="550" type="curve" smooth="yes"/>
			<point x="338" y="550"/>
			<point x="372" y="564"/>
			<point x="399" y="587" type="curve" smooth="yes"/>
			<point x="737" y="878" type="line" smooth="yes"/>
			<point x="769" y="905"/>
			<point x="789" y="946"/>
			<point x="789" y="991" type="curve" smooth="yes"/>
			<point x="789" y="1074"/>
			<point x="721" y="1141"/>
			<point x="639" y="1141" type="curve" smooth="yes"/>
			<point x="601" y="1141"/>
			<point x="567" y="1127"/>
		</contour>
	</outline>
</glyph>
<glyph name="uni2076" format="2">
	<advance width="638"/>
	<unicode hex="2076"/>
	<outline>
		<contour>
			<point x="319" y="774" type="curve" smooth="yes"/>
			<point x="267" y="774"/>
			<point x="225" y="816"/>
			<point x="225" y="868" type="curve" smooth="yes"/>
			<point x="225" y="920"/>
			<point x="267" y="962"/>
			<point x="319" y="962" type="curve" smooth="yes"/>
			<point x="371" y="962"/>
			<point x="413" y="920"/>
			<point x="413" y="868" type="curve" smooth="yes"/>
			<point x="413" y="816"/>
			<point x="371" y="774"/>
		</contour>
		<contour>
			<point x="319" y="624" type="curve" smooth="yes"/>
			<point x="454" y="624"/>
			<point x="563" y="733"/>
			<point x="563" y="868" type="curve" smooth="yes"/>
			<point x="563" y="1003"/>
			<point x="454" y="1112"/>
			<point x="319" y="1112" type="curve" smooth="yes"/>
			<point x="184" y="1112"/>
			<point x="75" y="1003"/>
			<point x="75" y="868" type="curve" smooth="yes"/>
			<point x="75" y="733"/>
			<point x="184" y="624"/>
		</contour>
		<contour>
			<point x="295" y="1363" type="curve" smooth="yes"/>
			<point x="232" y="1251" type="line" smooth="yes"/>
			<point x="226" y="1240"/>
			<point x="222" y="1227"/>
			<point x="222" y="1214" type="curve" smooth="yes"/>
			<point x="222" y="1173"/>
			<point x="256" y="1139"/>
			<point x="297" y="1139" type="curve" smooth="yes"/>
			<point x="325" y="1139"/>
			<point x="349" y="1154"/>
			<point x="362" y="1177" type="curve" smooth="yes"/>
			<point x="425" y="1287" type="line" smooth="yes"/>
			<point x="431" y="1298"/>
			<point x="435" y="1311"/>
			<point x="435" y="1325" type="curve" smooth="yes"/>
			<point x="435" y="1367"/>
			<point x="401" y="1400"/>
			<point x="360" y="1400" type="curve" smooth="yes"/>
			<point x="332" y="1400"/>
			<point x="308" y="1385"/>
		</contour>
	</outline>
</glyph>
<glyph name="uni2077" format="2">
	<advance width="638"/>
	<unicode hex="2077"/>
	<outline>
		<contour>
			<point x="243" y="623" type="curve" smooth="yes"/>
			<point x="275" y="623"/>
			<point x="302" y="643"/>
			<point x="313" y="671" type="curve" smooth="yes"/>
			<point x="541" y="1300" type="line" smooth="yes"/>
			<point x="558" y="1343"/>
			<point x="530" y="1403"/>
			<point x="471" y="1403" type="curve" smooth="yes"/>
			<point x="439" y="1403"/>
			<point x="412" y="1383"/>
			<point x="401" y="1355" type="curve" smooth="yes"/>
			<point x="173" y="726" type="line" smooth="yes"/>
			<point x="156" y="683"/>
			<point x="184" y="623"/>
		</contour>
		<contour>
			<point x="252" y="1400" type="curve" smooth="yes"/>
			<point x="177" y="1400" type="line" smooth="yes"/>
			<point x="135" y="1400"/>
			<point x="102" y="1366"/>
			<point x="102" y="1325" type="curve" smooth="yes"/>
			<point x="102" y="1284"/>
			<point x="135" y="1250"/>
			<point x="177" y="1250" type="curve" smooth="yes"/>
			<point x="252" y="1250" type="line" smooth="yes"/>
			<point x="293" y="1250"/>
			<point x="327" y="1284"/>
			<point x="327" y="1325" type="curve" smooth="yes"/>
			<point x="327" y="1366"/>
			<point x="293" y="1400"/>
		</contour>
	</outline>
</glyph>
<glyph name="trademark" format="2">
	<advance width="1806"/>
	<unicode hex="2122"/>
	<outline>
		<contour>
			<point x="389" y="1300" type="line"/>
			<point x="389" y="828" type="line" smooth="yes"/>
			<point x="389" y="773"/>
			<point x="434" y="728"/>
			<point x="489" y="728" type="curve" smooth="yes"/>
			<point x="544" y="728"/>
			<point x="589" y="773"/>
			<point x="589" y="828" type="curve" smooth="yes"/>
			<point x="589" y="1300" type="line"/>
		</contour>
		<contour>
			<point x="250" y="1200" type="curve" smooth="yes"/>
			<point x="489" y="1200" type="line" smooth="yes"/>
			<point x="544" y="1200"/>
			<point x="589" y="1245"/>
			<point x="589" y="1300" type="curve" smooth="yes"/>
			<point x="589" y="1355"/>
			<point x="544" y="1400"/>
			<point x="489" y="1400" type="curve" smooth="yes"/>
			<point x="250" y="1400" type="line" smooth="yes"/>
			<point x="195" y="1400"/>
			<point x="150" y="1355"/>
			<point x="150" y="1300" type="curve" smooth="yes"/>
			<point x="150" y="1245"/>
			<point x="195" y="1200"/>
		</contour>
		<contour>
			<point x="909" y="1307" type="curve" smooth="yes"/>
			<point x="909" y="828" type="line" smooth="yes"/>
			<point x="909" y="773"/>
			<point x="954" y="728"/>
			<point x="1009" y="728" type="curve" smooth="yes"/>
			<point x="1064" y="728"/>
			<point x="1109" y="773"/>
			<point x="1109" y="828" type="curve" smooth="yes"/>
			<point x="1109" y="1307" type="line" smooth="yes"/>
			<point x="1109" y="1362"/>
			<point x="1064" y="1407"/>
			<point x="1009" y="1407" type="curve" smooth="yes"/>
			<point x="954" y="1407"/>
			<point x="909" y="1362"/>
		</contour>
		<contour>
			<point x="720" y="1200" type="curve" smooth="yes"/>
			<point x="728" y="1200" type="line" smooth="yes"/>
			<point x="783" y="1200"/>
			<point x="828" y="1245"/>
			<point x="828" y="1300" type="curve" smooth="yes"/>
			<point x="828" y="1355"/>
			<point x="783" y="1400"/>
			<point x="728" y="1400" type="curve" smooth="yes"/>
			<point x="720" y="1400" type="line" smooth="yes"/>
			<point x="665" y="1400"/>
			<point x="620" y="1355"/>
			<point x="620" y="1300" type="curve" smooth="yes"/>
			<point x="620" y="1245"/>
			<point x="665" y="1200"/>
		</contour>
		<contour>
			<point x="1341" y="1108" type="curve" smooth="yes"/>
			<point x="1080" y="1377" type="line" smooth="yes"/>
			<point x="1062" y="1396"/>
			<point x="1037" y="1407"/>
			<point x="1009" y="1407" type="curve" smooth="yes"/>
			<point x="953" y="1407"/>
			<point x="909" y="1363"/>
			<point x="909" y="1307" type="curve" smooth="yes"/>
			<point x="909" y="1280"/>
			<point x="919" y="1256"/>
			<point x="937" y="1238" type="curve" smooth="yes"/>
			<point x="1197" y="968" type="line" smooth="yes"/>
			<point x="1215" y="950"/>
			<point x="1241" y="938"/>
			<point x="1269" y="938" type="curve" smooth="yes"/>
			<point x="1324" y="938"/>
			<point x="1369" y="983"/>
			<point x="1369" y="1038" type="curve" smooth="yes"/>
			<point x="1369" y="1065"/>
			<point x="1358" y="1090"/>
		</contour>
		<contour>
			<point x="1456" y="1307" type="curve" smooth="yes"/>
			<point x="1456" y="828" type="line" smooth="yes"/>
			<point x="1456" y="773"/>
			<point x="1501" y="728"/>
			<point x="1556" y="728" type="curve" smooth="yes"/>
			<point x="1611" y="728"/>
			<point x="1656" y="773"/>
			<point x="1656" y="828" type="curve" smooth="yes"/>
			<point x="1656" y="1307" type="line" smooth="yes"/>
			<point x="1656" y="1362"/>
			<point x="1611" y="1407"/>
			<point x="1556" y="1407" type="curve" smooth="yes"/>
			<point x="1501" y="1407"/>
			<point x="1456" y="1362"/>
		</contour>
	</outline>
</glyph>
<glyph name="partialdiff" format="2">
	<advance width="1160"/>
	<unicode hex="2202"/>
	<outline>
		<contour>
			<point x="580" y="300" type="curve" smooth="yes"/>
			<point x="492" y="300"/>
			<point x="420" y="372"/>
			<point x="420" y="460" type="curve" smooth="yes"/>
			<point x="420" y="548"/>
			<point x="492" y="620"/>
			<point x="580" y="620" type="curve" smooth="yes"/>
			<point x="668" y="620"/>
			<point x="740" y="548"/>
			<point x="740" y="460" type="curve" smooth="yes"/>
			<point x="740" y="372"/>
			<point x="668" y="300"/>
		</contour>
		<contour>
			<point x="580" y="0" type="curve" smooth="yes"/>
			<point x="834" y="0"/>
			<point x="1040" y="206"/>
			<point x="1040" y="460" type="curve" smooth="yes"/>
			<point x="1040" y="714"/>
			<point x="834" y="920"/>
			<point x="580" y="920" type="curve" smooth="yes"/>
			<point x="326" y="920"/>
			<point x="120" y="714"/>
			<point x="120" y="460" type="curve" smooth="yes"/>
			<point x="120" y="206"/>
			<point x="326" y="0"/>
		</contour>
		<contour>
			<point x="673" y="1197" type="curve" smooth="yes"/>
			<point x="556" y="1343" type="line" smooth="yes"/>
			<point x="528" y="1377"/>
			<point x="486" y="1399"/>
			<point x="439" y="1399" type="curve" smooth="yes"/>
			<point x="357" y="1399"/>
			<point x="289" y="1331"/>
			<point x="289" y="1249" type="curve" smooth="yes"/>
			<point x="289" y="1213"/>
			<point x="302" y="1180"/>
			<point x="323" y="1154" type="curve" smooth="yes"/>
			<point x="439" y="1009" type="line" smooth="yes"/>
			<point x="466" y="975"/>
			<point x="509" y="953"/>
			<point x="556" y="953" type="curve" smooth="yes"/>
			<point x="639" y="953"/>
			<point x="706" y="1020"/>
			<point x="706" y="1103" type="curve" smooth="yes"/>
			<point x="706" y="1138"/>
			<point x="694" y="1171"/>
		</contour>
	</outline>
</glyph>
<glyph name="product" format="2">
	<advance width="1556"/>
	<unicode hex="220F"/>
	<outline>
		<contour>
			<point x="450" y="150" type="curve" smooth="yes"/>
			<point x="450" y="710" type="line" smooth="yes"/>
			<point x="450" y="793"/>
			<point x="383" y="860"/>
			<point x="300" y="860" type="curve" smooth="yes"/>
			<point x="217" y="860"/>
			<point x="150" y="793"/>
			<point x="150" y="710" type="curve" smooth="yes"/>
			<point x="150" y="150" type="line" smooth="yes"/>
			<point x="150" y="67"/>
			<point x="217" y="0"/>
			<point x="300" y="0" type="curve" smooth="yes"/>
			<point x="383" y="0"/>
			<point x="450" y="67"/>
		</contour>
		<contour>
			<point x="1106" y="1250" type="curve" smooth="yes"/>
			<point x="1106" y="150" type="line" smooth="yes"/>
			<point x="1106" y="67"/>
			<point x="1173" y="0"/>
			<point x="1256" y="0" type="curve" smooth="yes"/>
			<point x="1339" y="0"/>
			<point x="1406" y="67"/>
			<point x="1406" y="150" type="curve" smooth="yes"/>
			<point x="1406" y="1250" type="line" smooth="yes"/>
			<point x="1406" y="1333"/>
			<point x="1339" y="1400"/>
			<point x="1256" y="1400" type="curve" smooth="yes"/>
			<point x="1173" y="1400"/>
			<point x="1106" y="1333"/>
		</contour>
		<contour>
			<point x="1256" y="1400" type="line"/>
			<point x="300" y="1400" type="line" smooth="yes"/>
			<point x="217" y="1400"/>
			<point x="150" y="1333"/>
			<point x="150" y="1250" type="curve" smooth="yes"/>
			<point x="150" y="1167"/>
			<point x="217" y="1100"/>
			<point x="300" y="1100" type="curve" smooth="yes"/>
			<point x="1256" y="1100" type="line"/>
		</contour>
	</outline>
</glyph>
<glyph name="summation" format="2">
	<advance width="1394"/>
	<unicode hex="2211"/>
	<outline>
		<contour>
			<point x="1124" y="300" type="curve" smooth="yes"/>
			<point x="300" y="300" type="line" smooth="yes"/>
			<point x="217" y="300"/>
			<point x="150" y="233"/>
			<point x="150" y="150" type="curve" smooth="yes"/>
			<point x="150" y="67"/>
			<point x="217" y="0"/>
			<point x="300" y="0" type="curve" smooth="yes"/>
			<point x="1124" y="0" type="line" smooth="yes"/>
			<point x="1207" y="0"/>
			<point x="1274" y="67"/>
			<point x="1274" y="150" type="curve" smooth="yes"/>
			<point x="1274" y="233"/>
			<point x="1207" y="300"/>
		</contour>
		<contour>
			<point x="759" y="880" type="curve" smooth="yes"/>
			<point x="420" y="1341" type="line" smooth="yes"/>
			<point x="392" y="1377"/>
			<point x="349" y="1400"/>
			<point x="300" y="1400" type="curve" smooth="yes"/>
			<point x="217" y="1400"/>
			<point x="150" y="1333"/>
			<point x="150" y="1250" type="curve" smooth="yes"/>
			<point x="150" y="1216"/>
			<point x="161" y="1185"/>
			<point x="180" y="1160" type="curve" smooth="yes"/>
			<point x="519" y="699" type="line" smooth="yes"/>
			<point x="547" y="663"/>
			<point x="590" y="640"/>
			<point x="639" y="640" type="curve" smooth="yes"/>
			<point x="722" y="640"/>
			<point x="789" y="707"/>
			<point x="789" y="790" type="curve" smooth="yes"/>
			<point x="789" y="824"/>
			<point x="778" y="855"/>
		</contour>
		<contour>
			<point x="1124" y="1400" type="curve" smooth="yes"/>
			<point x="300" y="1400" type="line" smooth="yes"/>
			<point x="217" y="1400"/>
			<point x="150" y="1333"/>
			<point x="150" y="1250" type="curve" smooth="yes"/>
			<point x="150" y="1167"/>
			<point x="217" y="1100"/>
			<point x="300" y="1100" type="curve" smooth="yes"/>
			<point x="1124" y="1100" type="line" smooth="yes"/>
			<point x="1207" y="1100"/>
			<point x="1274" y="1167"/>
			<point x="1274" y="1250" type="curve" smooth="yes"/>
			<point x="1274" y="1333"/>
			<point x="1207" y="1400"/>
		</contour>
	</outline>
</glyph>
<glyph name="minus" format="2">
	<advance width="1166"/>
	<unicode hex="2212"/>
	<outline>
		<contour>
			<point x="240" y="550" type="curve" smooth="yes"/>
			<point x="926" y="550" type="line" smooth="yes"/>
			<point x="1009" y="550"/>
			<point x="1076" y="617"/>
			<point x="1076" y="700" type="curve" smooth="yes"/>
			<point x="1076" y="783"/>
			<point x="1009" y="850"/>
			<point x="926" y="850" type="curve" smooth="yes"/>
			<point x="240" y="850" type="line" smooth="yes"/>
			<point x="157" y="850"/>
			<point x="90" y="783"/>
			<point x="90" y="700" type="curve" smooth="yes"/>
			<point x="90" y="617"/>
			<point x="157" y="550"/>
		</contour>
	</outline>
</glyph>
<glyph name="integral" format="2">
	<advance width="1252"/>
	<unicode hex="222B"/>
	<outline>
		<contour>
			<point x="476" y="320" type="curve" smooth="yes"/>
			<point x="476" y="175" type="line" smooth="yes"/>
			<point x="476" y="78"/>
			<point x="397" y="-1"/>
			<point x="300" y="-1" type="curve" smooth="yes"/>
			<point x="217" y="-1"/>
			<point x="150" y="-68"/>
			<point x="150" y="-151" type="curve" smooth="yes"/>
			<point x="150" y="-234"/>
			<point x="217" y="-301"/>
			<point x="300" y="-301" type="curve" smooth="yes"/>
			<point x="563" y="-301"/>
			<point x="776" y="-88"/>
			<point x="776" y="175" type="curve" smooth="yes"/>
			<point x="776" y="320" type="line" smooth="yes"/>
			<point x="776" y="403"/>
			<point x="709" y="470"/>
			<point x="626" y="470" type="curve" smooth="yes"/>
			<point x="543" y="470"/>
			<point x="476" y="403"/>
		</contour>
		<contour>
			<point x="776" y="980" type="curve" smooth="yes"/>
			<point x="776" y="1125" type="line" smooth="yes"/>
			<point x="776" y="1222"/>
			<point x="855" y="1301"/>
			<point x="952" y="1301" type="curve" smooth="yes"/>
			<point x="1035" y="1301"/>
			<point x="1102" y="1368"/>
			<point x="1102" y="1451" type="curve" smooth="yes"/>
			<point x="1102" y="1534"/>
			<point x="1035" y="1601"/>
			<point x="952" y="1601" type="curve" smooth="yes"/>
			<point x="689" y="1601"/>
			<point x="476" y="1388"/>
			<point x="476" y="1125" type="curve" smooth="yes"/>
			<point x="476" y="980" type="line" smooth="yes"/>
			<point x="476" y="897"/>
			<point x="543" y="830"/>
			<point x="626" y="830" type="curve" smooth="yes"/>
			<point x="709" y="830"/>
			<point x="776" y="897"/>
		</contour>
	</outline>
</glyph>
<glyph name="approxequal" format="2">
	<advance width="1166"/>
	<unicode hex="2248"/>
	<outline>
		<contour>
			<point x="847" y="599" type="curve" smooth="yes"/>
			<point x="809" y="528"/>
			<point x="746" y="527"/>
			<point x="677" y="590" type="curve" smooth="yes"/>
			<point x="511" y="743"/>
			<point x="195" y="733"/>
			<point x="72" y="511" type="curve" smooth="yes"/>
			<point x="61" y="491"/>
			<point x="55" y="468"/>
			<point x="55" y="443" type="curve" smooth="yes"/>
			<point x="55" y="366"/>
			<point x="118" y="303"/>
			<point x="195" y="303" type="curve" smooth="yes"/>
			<point x="248" y="303"/>
			<point x="294" y="332"/>
			<point x="318" y="375" type="curve" smooth="yes"/>
			<point x="354" y="442"/>
			<point x="426" y="440"/>
			<point x="487" y="384" type="curve" smooth="yes"/>
			<point x="666" y="221"/>
			<point x="971" y="243"/>
			<point x="1093" y="463" type="curve" smooth="yes"/>
			<point x="1104" y="483"/>
			<point x="1110" y="506"/>
			<point x="1110" y="531" type="curve" smooth="yes"/>
			<point x="1110" y="608"/>
			<point x="1047" y="671"/>
			<point x="970" y="671" type="curve" smooth="yes"/>
			<point x="917" y="671"/>
			<point x="871" y="642"/>
		</contour>
		<contour>
			<point x="847" y="1029" type="curve" smooth="yes"/>
			<point x="809" y="958"/>
			<point x="746" y="957"/>
			<point x="677" y="1020" type="curve" smooth="yes"/>
			<point x="511" y="1173"/>
			<point x="195" y="1163"/>
			<point x="72" y="941" type="curve" smooth="yes"/>
			<point x="61" y="921"/>
			<point x="55" y="898"/>
			<point x="55" y="873" type="curve" smooth="yes"/>
			<point x="55" y="796"/>
			<point x="118" y="733"/>
			<point x="195" y="733" type="curve" smooth="yes"/>
			<point x="248" y="733"/>
			<point x="294" y="762"/>
			<point x="318" y="805" type="curve" smooth="yes"/>
			<point x="354" y="872"/>
			<point x="426" y="870"/>
			<point x="487" y="814" type="curve" smooth="yes"/>
			<point x="666" y="651"/>
			<point x="971" y="673"/>
			<point x="1093" y="893" type="curve" smooth="yes"/>
			<point x="1104" y="913"/>
			<point x="1110" y="936"/>
			<point x="1110" y="961" type="curve" smooth="yes"/>
			<point x="1110" y="1038"/>
			<point x="1047" y="1101"/>
			<point x="970" y="1101" type="curve" smooth="yes"/>
			<point x="917" y="1101"/>
			<point x="871" y="1072"/>
		</contour>
	</outline>
</glyph>
<glyph name="notequal" format="2">
	<advance width="1166"/>
	<unicode hex="2260"/>
	<outline>
		<contour>
			<point x="440" y="64" type="curve" smooth="yes"/>
			<point x="482" y="64"/>
			<point x="518" y="94"/>
			<point x="527" y="133" type="curve" smooth="yes"/>
			<point x="815" y="1225" type="line" smooth="yes"/>
			<point x="828" y="1279"/>
			<point x="786" y="1336"/>
			<point x="727" y="1336" type="curve" smooth="yes"/>
			<point x="685" y="1336"/>
			<point x="649" y="1306"/>
			<point x="640" y="1267" type="curve" smooth="yes"/>
			<point x="352" y="175" type="line" smooth="yes"/>
			<point x="339" y="121"/>
			<point x="381" y="64"/>
		</contour>
		<contour>
			<point x="241" y="305" type="curve" smooth="yes"/>
			<point x="246" y="305" type="line" smooth="yes"/>
			<point x="329" y="305"/>
			<point x="396" y="372"/>
			<point x="396" y="455" type="curve" smooth="yes"/>
			<point x="396" y="538"/>
			<point x="329" y="605"/>
			<point x="246" y="605" type="curve" smooth="yes"/>
			<point x="241" y="605" type="line" smooth="yes"/>
			<point x="158" y="605"/>
			<point x="91" y="538"/>
			<point x="91" y="455" type="curve" smooth="yes"/>
			<point x="91" y="372"/>
			<point x="158" y="305"/>
		</contour>
		<contour>
			<point x="345" y="1095" type="curve" smooth="yes"/>
			<point x="240" y="1095" type="line" smooth="yes"/>
			<point x="157" y="1095"/>
			<point x="90" y="1028"/>
			<point x="90" y="945" type="curve" smooth="yes"/>
			<point x="90" y="862"/>
			<point x="157" y="795"/>
			<point x="240" y="795" type="curve" smooth="yes"/>
			<point x="345" y="795" type="line" smooth="yes"/>
			<point x="428" y="795"/>
			<point x="495" y="862"/>
			<point x="495" y="945" type="curve" smooth="yes"/>
			<point x="495" y="1028"/>
			<point x="428" y="1095"/>
		</contour>
		<contour>
			<point x="821" y="305" type="curve" smooth="yes"/>
			<point x="926" y="305" type="line" smooth="yes"/>
			<point x="1009" y="305"/>
			<point x="1076" y="372"/>
			<point x="1076" y="455" type="curve" smooth="yes"/>
			<point x="1076" y="538"/>
			<point x="1009" y="605"/>
			<point x="926" y="605" type="curve" smooth="yes"/>
			<point x="821" y="605" type="line" smooth="yes"/>
			<point x="738" y="605"/>
			<point x="671" y="538"/>
			<point x="671" y="455" type="curve" smooth="yes"/>
			<point x="671" y="372"/>
			<point x="738" y="305"/>
		</contour>
		<contour>
			<point x="925" y="1095" type="curve" smooth="yes"/>
			<point x="920" y="1095" type="line" smooth="yes"/>
			<point x="837" y="1095"/>
			<point x="770" y="1028"/>
			<point x="770" y="945" type="curve" smooth="yes"/>
			<point x="770" y="862"/>
			<point x="837" y="795"/>
			<point x="920" y="795" type="curve" smooth="yes"/>
			<point x="925" y="795" type="line" smooth="yes"/>
			<point x="1008" y="795"/>
			<point x="1075" y="862"/>
			<point x="1075" y="945" type="curve" smooth="yes"/>
			<point x="1075" y="1028"/>
			<point x="1008" y="1095"/>
		</contour>
	</outline>
</glyph>
<glyph name="lozenge" format="2">
	<advance width="1157"/>
	<unicode hex="25CA"/>
	<outline>
		<contour>
			<point x="262" y="361" type="curve" smooth="yes"/>
			<point x="450" y="72" type="line"/>
			<point x="702" y="236" type="line"/>
			<point x="511" y="529" type="line" smooth="yes"/>
			<point x="484" y="569"/>
			<point x="439" y="595"/>
			<point x="387" y="595" type="curve" smooth="yes"/>
			<point x="304" y="595"/>
			<point x="237" y="528"/>
			<point x="237" y="445" type="curve" smooth="yes"/>
			<point x="237" y="414"/>
			<point x="246" y="385"/>
		</contour>
		<contour>
			<point x="704" y="67" type="curve" smooth="yes"/>
			<point x="983" y="506" type="line" smooth="yes"/>
			<point x="998" y="529"/>
			<point x="1007" y="558"/>
			<point x="1007" y="588" type="curve" smooth="yes"/>
			<point x="1007" y="671"/>
			<point x="940" y="738"/>
			<point x="857" y="738" type="curve" smooth="yes"/>
			<point x="805" y="738"/>
			<point x="759" y="711"/>
			<point x="732" y="671" type="curve" smooth="yes"/>
			<point x="453" y="232" type="line" smooth="yes"/>
			<point x="438" y="209"/>
			<point x="429" y="180"/>
			<point x="429" y="150" type="curve" smooth="yes"/>
			<point x="429" y="67"/>
			<point x="496" y="0"/>
			<point x="579" y="0" type="curve" smooth="yes"/>
			<point x="631" y="0"/>
			<point x="677" y="27"/>
		</contour>
		<contour>
			<point x="425" y="729" type="curve" smooth="yes"/>
			<point x="704" y="1168" type="line" smooth="yes"/>
			<point x="719" y="1191"/>
			<point x="728" y="1220"/>
			<point x="728" y="1250" type="curve" smooth="yes"/>
			<point x="728" y="1333"/>
			<point x="661" y="1400"/>
			<point x="578" y="1400" type="curve" smooth="yes"/>
			<point x="526" y="1400"/>
			<point x="480" y="1373"/>
			<point x="453" y="1333" type="curve" smooth="yes"/>
			<point x="174" y="894" type="line" smooth="yes"/>
			<point x="159" y="871"/>
			<point x="150" y="842"/>
			<point x="150" y="812" type="curve" smooth="yes"/>
			<point x="150" y="729"/>
			<point x="217" y="662"/>
			<point x="300" y="662" type="curve" smooth="yes"/>
			<point x="352" y="662"/>
			<point x="398" y="689"/>
		</contour>
		<contour>
			<point x="895" y="1039" type="curve" smooth="yes"/>
			<point x="707" y="1328" type="line"/>
			<point x="455" y="1164" type="line"/>
			<point x="646" y="871" type="line" smooth="yes"/>
			<point x="673" y="831"/>
			<point x="718" y="805"/>
			<point x="770" y="805" type="curve" smooth="yes"/>
			<point x="853" y="805"/>
			<point x="920" y="872"/>
			<point x="920" y="955" type="curve" smooth="yes"/>
			<point x="920" y="986"/>
			<point x="911" y="1015"/>
		</contour>
	</outline>
</glyph>
<glyph name="fl" format="2">
	<advance width="2553"/>
	<unicode hex="FB02"/>
	<anchor x="1276.5" y="0" name="caret_1"/>
	<outline>
		<contour>
			<point x="150" y="710" type="line"/>
			<point x="150" y="150" type="line" smooth="yes"/>
			<point x="150" y="67"/>
			<point x="217" y="0"/>
			<point x="300" y="0" type="curve" smooth="yes"/>
			<point x="383" y="0"/>
			<point x="450" y="67"/>
			<point x="450" y="150" type="curve" smooth="yes"/>
			<point x="450" y="710" type="line"/>
		</contour>
		<contour>
			<point x="888" y="850" type="curve" smooth="yes"/>
			<point x="300" y="850" type="line" smooth="yes"/>
			<point x="217" y="850"/>
			<point x="150" y="783"/>
			<point x="150" y="700" type="curve" smooth="yes"/>
			<point x="150" y="617"/>
			<point x="217" y="550"/>
			<point x="300" y="550" type="curve" smooth="yes"/>
			<point x="888" y="550" type="line" smooth="yes"/>
			<point x="971" y="550"/>
			<point x="1038" y="617"/>
			<point x="1038" y="700" type="curve" smooth="yes"/>
			<point x="1038" y="783"/>
			<point x="971" y="850"/>
		</contour>
		<contour>
			<point x="2303" y="304" type="curve" smooth="yes"/>
			<point x="1558" y="304" type="line" smooth="yes"/>
			<point x="1475" y="304"/>
			<point x="1408" y="237"/>
			<point x="1408" y="154" type="curve" smooth="yes"/>
			<point x="1408" y="71"/>
			<point x="1475" y="4"/>
			<point x="1558" y="4" type="curve" smooth="yes"/>
			<point x="2303" y="4" type="line" smooth="yes"/>
			<point x="2386" y="4"/>
			<point x="2453" y="71"/>
			<point x="2453" y="154" type="curve" smooth="yes"/>
			<point x="2453" y="237"/>
			<point x="2386" y="304"/>
		</contour>
		<contour>
			<point x="300" y="1100" type="curve" smooth="yes"/>
			<point x="1573" y="1100" type="line"/>
			<point x="1573" y="1400" type="line"/>
			<point x="300" y="1400" type="line" smooth="yes"/>
			<point x="217" y="1400"/>
			<point x="150" y="1333"/>
			<point x="150" y="1250" type="curve" smooth="yes"/>
			<point x="150" y="1167"/>
			<point x="217" y="1100"/>
		</contour>
		<contour>
			<point x="1723" y="602" type="curve" smooth="yes"/>
			<point x="1723" y="1250" type="line" smooth="yes"/>
			<point x="1723" y="1333"/>
			<point x="1656" y="1400"/>
			<point x="1573" y="1400" type="curve" smooth="yes"/>
			<point x="1490" y="1400"/>
			<point x="1423" y="1333"/>
			<point x="1423" y="1250" type="curve" smooth="yes"/>
			<point x="1423" y="602" type="line" smooth="yes"/>
			<point x="1423" y="519"/>
			<point x="1490" y="452"/>
			<point x="1573" y="452" type="curve" smooth="yes"/>
			<point x="1656" y="452"/>
			<point x="1723" y="519"/>
		</contour>
	</outline>
</glyph>
<glyph name=".notdef" format="2">
	<advance width="1640"/>
	<outline>
		<contour>
			<point x="378" y="46" type="curve" smooth="yes"/>
			<point x="630" y="298" type="line" smooth="yes"/>
			<point x="658" y="325"/>
			<point x="675" y="363"/>
			<point x="675" y="405" type="curve" smooth="yes"/>
			<point x="675" y="487"/>
			<point x="607" y="555"/>
			<point x="525" y="555" type="curve" smooth="yes"/>
			<point x="483" y="555"/>
			<point x="445" y="538"/>
			<point x="418" y="510" type="curve" smooth="yes"/>
			<point x="166" y="258" type="line" smooth="yes"/>
			<point x="139" y="231"/>
			<point x="122" y="194"/>
			<point x="122" y="152" type="curve" smooth="yes"/>
			<point x="122" y="70"/>
			<point x="190" y="2"/>
			<point x="272" y="2" type="curve" smooth="yes"/>
			<point x="314" y="2"/>
			<point x="351" y="19"/>
		</contour>
		<contour>
			<point x="424" y="653" type="curve" smooth="yes"/>
			<point x="424" y="747" type="line" smooth="yes"/>
			<point x="424" y="830"/>
			<point x="357" y="897"/>
			<point x="274" y="897" type="curve" smooth="yes"/>
			<point x="191" y="897"/>
			<point x="124" y="830"/>
			<point x="124" y="747" type="curve" smooth="yes"/>
			<point x="124" y="653" type="line" smooth="yes"/>
			<point x="124" y="570"/>
			<point x="191" y="503"/>
			<point x="274" y="503" type="curve" smooth="yes"/>
			<point x="357" y="503"/>
			<point x="424" y="570"/>
		</contour>
		<contour>
			<point x="868" y="304" type="curve" smooth="yes"/>
			<point x="774" y="304" type="line" smooth="yes"/>
			<point x="691" y="304"/>
			<point x="624" y="237"/>
			<point x="624" y="154" type="curve" smooth="yes"/>
			<point x="624" y="71"/>
			<point x="691" y="4"/>
			<point x="774" y="4" type="curve" smooth="yes"/>
			<point x="868" y="4" type="line" smooth="yes"/>
			<point x="951" y="4"/>
			<point x="1018" y="71"/>
			<point x="1018" y="154" type="curve" smooth="yes"/>
			<point x="1018" y="237"/>
			<point x="951" y="304"/>
		</contour>
		<contour>
			<point x="1476" y="256" type="curve" smooth="yes"/>
			<point x="377" y="1356" type="line" smooth="yes"/>
			<point x="349" y="1383"/>
			<point x="312" y="1400"/>
			<point x="270" y="1400" type="curve" smooth="yes"/>
			<point x="188" y="1400"/>
			<point x="120" y="1332"/>
			<point x="120" y="1250" type="curve" smooth="yes"/>
			<point x="120" y="1208"/>
			<point x="137" y="1171"/>
			<point x="164" y="1143" type="curve" smooth="yes"/>
			<point x="1264" y="44" type="line" smooth="yes"/>
			<point x="1291" y="17"/>
			<point x="1329" y="0"/>
			<point x="1370" y="0" type="curve" smooth="yes"/>
			<point x="1453" y="0"/>
			<point x="1520" y="67"/>
			<point x="1520" y="150" type="curve" smooth="yes"/>
			<point x="1520" y="191"/>
			<point x="1503" y="229"/>
		</contour>
		<contour>
			<point x="774" y="1096" type="curve" smooth="yes"/>
			<point x="868" y="1096" type="line" smooth="yes"/>
			<point x="951" y="1096"/>
			<point x="1018" y="1163"/>
			<point x="1018" y="1246" type="curve" smooth="yes"/>
			<point x="1018" y="1329"/>
			<point x="951" y="1396"/>
			<point x="868" y="1396" type="curve" smooth="yes"/>
			<point x="774" y="1396" type="line" smooth="yes"/>
			<point x="691" y="1396"/>
			<point x="624" y="1329"/>
			<point x="624" y="1246" type="curve" smooth="yes"/>
			<point x="624" y="1163"/>
			<point x="691" y="1096"/>
		</contour>
		<contour>
			<point x="1517" y="653" type="curve" smooth="yes"/>
			<point x="1517" y="747" type="line" smooth="yes"/>
			<point x="1517" y="830"/>
			<point x="1450" y="897"/>
			<point x="1367" y="897" type="curve" smooth="yes"/>
			<point x="1284" y="897"/>
			<point x="1217" y="830"/>
			<point x="1217" y="747" type="curve" smooth="yes"/>
			<point x="1217" y="653" type="line" smooth="yes"/>
			<point x="1217" y="570"/>
			<point x="1284" y="503"/>
			<point x="1367" y="503" type="curve" smooth="yes"/>
			<point x="1450" y="503"/>
			<point x="1517" y="570"/>
		</contour>
		<contour>
			<point x="1222" y="889" type="curve" smooth="yes"/>
			<point x="1474" y="1141" type="line" smooth="yes"/>
			<point x="1502" y="1168"/>
			<point x="1519" y="1206"/>
			<point x="1519" y="1248" type="curve" smooth="yes"/>
			<point x="1519" y="1330"/>
			<point x="1451" y="1398"/>
			<point x="1369" y="1398" type="curve" smooth="yes"/>
			<point x="1327" y="1398"/>
			<point x="1289" y="1381"/>
			<point x="1262" y="1353" type="curve" smooth="yes"/>
			<point x="1010" y="1101" type="line" smooth="yes"/>
			<point x="983" y="1074"/>
			<point x="966" y="1037"/>
			<point x="966" y="995" type="curve" smooth="yes"/>
			<point x="966" y="913"/>
			<point x="1034" y="845"/>
			<point x="1116" y="845" type="curve" smooth="yes"/>
			<point x="1158" y="845"/>
			<point x="1195" y="862"/>
		</contour>
	</outline>
</glyph>
